<?xml version="1.0" encoding="UTF-8"?>
<svg id="b" data-name="Layer 2" xmlns="http://www.w3.org/2000/svg" xmlns:xlink="http://www.w3.org/1999/xlink" viewBox="0 0 677.57 677.57">
  <defs>
    <linearGradient id="e" x1="123.43" y1="325.56" x2="567" y2="325.56" gradientUnits="userSpaceOnUse">
      <stop offset="0" stop-color="#fff"/>
      <stop offset=".03" stop-color="#fff5e7"/>
      <stop offset=".13" stop-color="#ffd69b"/>
      <stop offset=".22" stop-color="#ffbd5f"/>
      <stop offset=".3" stop-color="#ffab34"/>
      <stop offset=".36" stop-color="#ffa119"/>
      <stop offset=".39" stop-color="#ff9d10"/>
      <stop offset=".4" stop-color="#ff9c0f"/>
      <stop offset=".47" stop-color="#ff9a08"/>
      <stop offset=".55" stop-color="#ff9906"/>
    </linearGradient>
  </defs>
  <g id="c" data-name="Morocco">
    <g>
      <circle cx="338.79" cy="338.79" r="338.79" style="fill: #231f20;"/>
      <path id="d" data-name="WHITE" d="m119.29,281.86l33.43-42.43c9.39.12,24.96.24,44.36,0,33.03-.4,42.35-1.42,57.21,1.29,10.7,1.94,26.8,6.27,45.64,17.36-5.36,18-10.71,36-16.07,54-4.76-7.1-13.09-17.12-26.36-23.14-6.94-3.15-13.74-4.53-41.14-5.14-21.12-.47-32.96,0-46.93,0-11.92,0-29.11-.32-50.14-1.93Z" style="fill: #babbb9;"/>
      <path id="f" data-name="YELLOW" d="m123.43,302.14h51.43v63h68.14c3.53.12,14.01,0,24.43-7.07,10.21-6.93,14.19-16.38,15.43-19.71,8.36-26.43,16.71-52.86,25.07-79.29,2.96-11.34,12.8-19.61,24.43-20.57,11.79-.97,22.98,5.78,27.64,16.71,18,31.93,36,63.86,54,95.79l55.29-95.79c.47-.8,8.81-14.44,25.07-14.79,10.76-.23,20.86,5.44,26.36,14.79,15.43,52.07,30.86,104.14,46.29,156.21h-51.43l-27.64-106.07-48.21,94.5c-1.06,1.35-10.73,13.2-27,12.86-14.94-.31-23.79-10.66-25.07-12.21-16.29-31.29-32.57-62.57-48.86-93.86-4.07,16.71-8.14,33.43-12.21,50.14-5.08,10.54-15.64,28.34-35.79,40.29-14.84,8.8-28.19,10.46-51.21,13.07-22.35,2.54-33.27,1.02-72.43.86-18.71-.08-33.94.19-43.71.43v-109.29Z" style="fill: url(#e);"/>
      <path id="g" data-name="D" d="m128.14,417.86l-3,4.5h15.86c1.95,1.09,3.12,3.17,3,5.36-.17,3.09-2.83,4.62-3,4.71h-10.93l-.21-7.29h-5.57v12.64h16.71c5.57-1.01,9.37-5.91,9-10.93-.3-4.06-3.28-7.67-7.5-9h-14.36Z" style="fill: #a4a8ae;"/>
      <rect id="h" data-name="I" x="153" y="417.86" width="6.21" height="19.93" style="fill: #a4a8ae;"/>
      <path id="i" data-name="S" d="m187.71,417.86c-.79,1.79-1.57,3.57-2.36,5.36h-17.14v2.57h16.29c2.85.39,5.06,2.64,5.36,5.36.33,3.02-1.77,5.96-4.93,6.64h-21.64l3.86-5.14,16.07-.21v-3c-5.29-.07-10.57-.14-15.86-.21-3.09-.84-4.98-3.81-4.5-6.64.4-2.35,2.38-4.28,4.93-4.71h19.93Z" style="fill: #a4a8ae;"/>
      <path id="j" data-name="C" d="m217.5,417.86l-3,4.5h-13.93c-2.01.86-3.35,2.78-3.43,4.93-.09,2.29,1.28,4.44,3.43,5.36h16.93l-3.86,5.14h-13.07c-5.26-.77-9.05-5.42-8.79-10.5.25-4.71,3.92-8.73,8.79-9.43h16.93Z" style="fill: #a4a8ae;"/>
      <path id="k" data-name="UPo" d="m233.36,417.86c-1.64-.08-5.26-.01-9,2.14-2.16,1.24-3.61,2.75-4.5,3.86-.36.59-1.19,2.16-1.07,4.29.09,1.63.71,2.84,1.07,3.43.46.9,1.25,2.2,2.57,3.43,1.86,1.73,3.83,2.47,4.93,2.79h12.21c1.22-.22,3.52-.81,5.79-2.57,1.64-1.27,2.64-2.68,3.21-3.64.39-.7,1.15-2.33,1.07-4.5-.07-1.81-.69-3.17-1.07-3.86-.23-.63-.94-2.36-2.79-3.64-1.6-1.11-3.2-1.28-3.88-1.32-2.85-.13-5.7-.26-8.55-.4Z" style="fill: #a4a8ae;"/>
      <path id="l" data-name="DOWo" d="m228,422.79c1.53-.29,3.25-.53,5.14-.64,2.84-.18,5.37-.04,7.5.21.14.08,2.91,1.68,3,4.93.06,2.08-1,4.05-2.79,5.14-1.49.53-3.97,1.21-7.07,1.07-2.58-.11-4.64-.75-6-1.29-1.8-.98-2.89-2.9-2.79-4.93.1-1.92,1.25-3.65,3-4.5Z" style="fill: #231f20;"/>
      <path id="m" data-name="V" d="m248.57,417.86h7.29l7.07,11.14c.03.07.5.96,1.5,1.07.78.09,1.55-.34,1.93-1.07,2.57-3.71,5.14-7.43,7.71-11.14h7.07l-12.86,18c-.62,1.46-2.07,2.4-3.64,2.36-1.49-.04-2.84-.97-3.43-2.36-4.21-6-8.43-12-12.64-18Z" style="fill: #a4a8ae;"/>
      <polygon id="n" data-name="E" points="283.93 417.86 306.21 417.84 302.14 422.06 290.14 422.06 290.14 425.36 306.21 425.36 302.79 429.64 289.71 429.64 289.93 433.52 306.21 433.52 302.57 437.79 283.93 437.79 283.93 417.86" style="fill: #a4a8ae;"/>
      <path id="o" data-name="R" d="m313.71,417.86l-4.29,4.21h19.5c1.24.53,2.02,1.78,1.93,3.08-.08,1.16-.83,2.19-1.93,2.65-6.5.08-13,.16-19.5.25v9.96c1.79-.07,3.57-.14,5.36-.21.07-1.93.14-3.86.21-5.79l10.07.21,3.86,5.57h9l-7.5-6.43c3.57-.18,6.39-2.96,6.64-6.21.28-3.68-2.78-7.17-6.86-7.29h-16.5Z" style="fill: #a4a8ae;"/>
      <path id="p" data-name="M" d="m356.46,437.36h-6.11c1.64-5.36,3.29-10.71,4.93-16.07.34-2.52,2.64-4.04,4.55-3.59,1.45.34,2.61,1.8,2.73,3.59,1.71,2.68,3.43,5.36,5.14,8.04h2.79l5.57-10.39c.6-1.26,1.9-2.01,3.21-1.88,1.75.17,2.54,1.8,2.57,1.88,1.79,6.14,3.57,12.29,5.36,18.43h-6.64l-1.71-9.21c.1-.99-.64-1.71-1.25-1.69-.58.03-1.23.75-1.11,1.69-1.5,3.07-3,6.14-4.5,9.21h-5.79l-5.14-9.21c.1-1.21-.65-2.07-1.23-2.09-.6-.02-1.42.84-1.34,2.09-.68,3.07-1.36,6.14-2.04,9.21Z" style="fill: #a4a8ae;"/>
      <path id="q" data-name="upO" d="m388.45,424.61c-.05,1.93-.11,3.86-.16,5.79.15.83.5,2.17,1.45,3.54,1.6,2.3,3.83,3.16,4.66,3.43h14.95c.86-.1,2.98-.47,4.98-2.14,1.83-1.53,2.6-3.33,2.89-4.15v-6.29c-.63-1.11-1.69-2.67-3.38-4.18-1.54-1.38-3.07-2.22-4.18-2.73-2.1-.44-4.77-.82-7.88-.8-2.89.02-5.39.37-7.39.79-.79.28-2.32.94-3.7,2.43-1.56,1.69-2.07,3.51-2.25,4.34Z" style="fill: #a4a8ae;"/>
      <path id="r" data-name="dowO" d="m394.39,425.41c-.55,1-.64,2.09-.64,2.09-.13,1.47.39,2.59.64,3.05.66.61,3.7,3.24,8.36,3.21,4.56-.03,7.52-2.59,8.2-3.21,1.11-.87,1.68-2.23,1.45-3.54-.24-1.33-1.2-2.07-1.45-2.25-1.33-.95-4.48-2.88-8.68-2.73-.46.02-6.18.28-7.88,3.38Z" style="fill: #231f20;"/>
      <path id="s" data-name="R" d="m425.05,417.74l-4.29,4.21h19.5c1.24.53,2.02,1.78,1.93,3.08-.08,1.16-.83,2.19-1.93,2.65-6.5.08-13,.16-19.5.25v9.96c1.79-.07,3.57-.14,5.36-.21.07-1.93.14-3.86.21-5.79l10.07.21,3.86,5.57h9l-7.5-6.43c3.57-.18,6.39-2.96,6.64-6.21.28-3.68-2.78-7.17-6.86-7.29h-16.5Z" style="fill: #a4a8ae;"/>
      <path id="t" data-name="upO" d="m450.51,424.6c-.05,1.93-.11,3.86-.16,5.79.15.83.5,2.17,1.45,3.54,1.6,2.3,3.83,3.16,4.66,3.43h14.95c.86-.1,2.98-.47,4.98-2.14,1.83-1.53,2.6-3.33,2.89-4.15v-6.29c-.63-1.11-1.69-2.67-3.38-4.18-1.54-1.38-3.07-2.22-4.18-2.73-2.1-.44-4.77-.82-7.88-.8-2.89.02-5.39.37-7.39.79-.79.28-2.32.94-3.7,2.43-1.56,1.69-2.07,3.51-2.25,4.34Z" style="fill: #a4a8ae;"/>
      <path id="u" data-name="dowO" d="m456.46,425.4c-.55,1-.64,2.09-.64,2.09-.13,1.47.39,2.59.64,3.05.66.61,3.7,3.24,8.36,3.21,4.56-.03,7.52-2.59,8.2-3.21,1.11-.87,1.68-2.23,1.45-3.54-.24-1.33-1.2-2.07-1.45-2.25-1.33-.95-4.48-2.88-8.68-2.73-.46.02-6.18.28-7.88,3.38Z" style="fill: #231f20;"/>
      <path id="v" data-name="C" d="m508.1,417.86l-3,4.5h-13.93c-2.01.86-3.35,2.78-3.43,4.93-.09,2.29,1.28,4.44,3.43,5.36h16.93l-3.86,5.14h-13.07c-5.26-.77-9.05-5.42-8.79-10.5.25-4.71,3.92-8.73,8.79-9.43h16.93Z" style="fill: #a4a8ae;"/>
      <path id="w" data-name="C" d="m536.02,417.86l-3,4.5h-13.93c-2.01.86-3.35,2.78-3.43,4.93-.09,2.29,1.28,4.44,3.43,5.36h16.93l-3.86,5.14h-13.07c-5.26-.77-9.05-5.42-8.79-10.5.25-4.71,3.92-8.73,8.79-9.43h16.93Z" style="fill: #a4a8ae;"/>
      <path id="x" data-name="upO" d="m538.23,424.6c-.05,1.93-.11,3.86-.16,5.79.15.83.5,2.17,1.45,3.54,1.6,2.3,3.83,3.16,4.66,3.43h14.95c.86-.1,2.98-.47,4.98-2.14,1.83-1.53,2.6-3.33,2.89-4.15v-6.29c-.63-1.11-1.69-2.67-3.38-4.18-1.54-1.38-3.07-2.22-4.18-2.73-2.1-.44-4.77-.82-7.88-.8-2.89.02-5.39.37-7.39.79-.79.28-2.32.94-3.7,2.43-1.56,1.69-2.07,3.51-2.25,4.34Z" style="fill: #a4a8ae;"/>
      <path id="y" data-name="dowO" d="m544.18,425.4c-.55,1-.64,2.09-.64,2.09-.13,1.47.39,2.59.64,3.05.66.61,3.7,3.24,8.36,3.21,4.56-.03,7.52-2.59,8.2-3.21,1.11-.87,1.68-2.23,1.45-3.54-.24-1.33-1.2-2.07-1.45-2.25-1.33-.95-4.48-2.88-8.68-2.73-.46.02-6.18.28-7.88,3.38Z" style="fill: #231f20;"/>
    </g>
  </g>
</svg>