<?xml version="1.0" encoding="UTF-8"?>
<svg id="b" data-name="Layer 2" xmlns="http://www.w3.org/2000/svg" xmlns:xlink="http://www.w3.org/1999/xlink" viewBox="0 0 2030.24 340.56">
  <defs>
    <linearGradient id="e" x1="5.91" y1="170.28" x2="638.38" y2="170.28" gradientUnits="userSpaceOnUse">
      <stop offset="0" stop-color="#fff"/>
      <stop offset=".03" stop-color="#fff5e7"/>
      <stop offset=".13" stop-color="#ffd69b"/>
      <stop offset=".22" stop-color="#ffbd5f"/>
      <stop offset=".3" stop-color="#ffab34"/>
      <stop offset=".36" stop-color="#ffa119"/>
      <stop offset=".39" stop-color="#ff9d10"/>
      <stop offset=".4" stop-color="#ff9c0f"/>
      <stop offset=".47" stop-color="#ff9a08"/>
      <stop offset=".48" stop-color="#fc9b0f"/>
      <stop offset=".51" stop-color="#f99e18"/>
      <stop offset=".55" stop-color="#f99f1c"/>
      <stop offset=".7" stop-color="#f99f1c"/>
    </linearGradient>
  </defs>
  <g id="c" data-name="Morocco">
    <g>
      <path id="d" data-name="WHITE" d="m0,84.89L47.66,1.99c13.39.23,35.59.46,63.25,0,47.09-.79,60.39-2.77,81.58,2.51,15.25,3.8,38.21,12.26,65.08,33.91-7.64,35.17-15.28,70.33-22.92,105.5-6.79-13.87-18.66-33.44-37.58-45.22-9.9-6.16-19.59-8.85-58.66-10.05-30.11-.92-46.99-.01-66.91,0-17,.01-41.51-.63-71.5-3.77Z" style="fill: #babbb9;"/>
      <path id="f" data-name="YELLOW" d="m5.91,124.52h73.33v123.09h97.16c5.03.23,19.98.01,34.83-13.82,14.55-13.55,20.24-32,22-38.52,11.92-51.63,23.83-103.27,35.75-154.9,4.22-22.15,18.25-38.32,34.83-40.19,16.81-1.9,32.76,11.3,39.41,32.66,25.67,62.38,51.33,124.76,77,187.14l78.83-187.14c.67-1.56,12.56-28.2,35.75-28.89,15.34-.45,29.75,10.63,37.58,28.89,22,101.73,44,203.47,66,305.2h-73.33l-39.41-207.24-68.75,184.63c-1.51,2.64-15.3,25.79-38.5,25.12-21.3-.61-33.92-20.84-35.75-23.86-23.22-61.12-46.44-122.25-69.66-183.37-5.81,32.66-11.61,65.31-17.42,97.97-7.24,20.6-22.3,55.37-51.03,78.71-21.16,17.19-40.19,20.44-73.02,25.54-31.87,4.95-47.43,1.99-103.27,1.67-26.67-.15-48.39.38-62.33.84V124.52Z" style="fill: url(#e);"/>
    </g>
    <path id="g" data-name="D" d="m1010.97,87.04l-14.57,15.98h77c9.48,3.86,15.16,11.27,14.57,19.03-.83,10.98-13.75,16.41-14.57,16.74h-53.07l-1.04-25.88h-27.05v44.91h81.16c27.07-3.6,45.51-21,43.7-38.82-1.46-14.41-15.95-27.25-36.42-31.97h-69.72Z" style="fill: #020100;"/>
    <rect id="h" data-name="I" x="1131.67" y="87.04" width="30.18" height="70.79" style="fill: #020100;"/>
    <path id="i" data-name="S" d="m1300.24,87.04c-3.82,6.34-7.63,12.69-11.45,19.03h-83.25v9.13h79.08c13.85,1.4,24.56,9.39,26.01,19.03,1.62,10.73-8.61,21.16-23.93,23.6h-105.1l18.73-18.27,78.04-.76v-10.66c-25.67-.25-51.33-.51-77-.76-15-2.98-24.2-13.53-21.85-23.6,1.95-8.35,11.56-15.19,23.93-16.74h96.77Z" style="fill: #020100;"/>
    <path id="j" data-name="C" d="m1444.88,87.04l-14.57,15.98h-67.64c-9.75,3.04-16.25,9.88-16.65,17.51-.42,8.15,6.21,15.76,16.65,19.03h82.21l-18.73,18.27h-63.47c-25.56-2.75-43.96-19.25-42.66-37.3,1.2-16.72,19.05-31,42.66-33.49h82.21Z" style="fill: #020100;"/>
    <path id="k" data-name="UPo" d="m1521.89,87.04c-7.96-.27-25.56-.04-43.7,7.61-10.47,4.41-17.53,9.78-21.85,13.7-1.73,2.1-5.8,7.68-5.2,15.22.46,5.8,3.46,10.07,5.2,12.18,2.21,3.21,6.06,7.8,12.49,12.18,9.04,6.15,18.61,8.76,23.93,9.89h59.31c5.94-.78,17.1-2.87,28.1-9.13,7.94-4.52,12.82-9.52,15.61-12.94,1.88-2.5,5.59-8.26,5.2-15.98-.33-6.44-3.36-11.25-5.2-13.7-1.09-2.23-4.56-8.4-13.53-12.94-7.77-3.94-15.52-4.56-18.85-4.69-13.83-.47-27.67-.94-41.5-1.4Z" style="fill: #020100;"/>
    <path id="l" data-name="DOWo" d="m1495.87,104.55c7.44-1.03,15.8-1.87,24.97-2.28,13.78-.62,26.07-.14,36.42.76.66.27,14.11,5.98,14.57,17.51.29,7.4-4.88,14.38-13.53,18.27-7.22,1.89-19.27,4.29-34.34,3.81-12.52-.41-22.55-2.66-29.14-4.57-8.75-3.48-14.03-10.31-13.53-17.51.47-6.83,6.08-12.97,14.57-15.98Z" style="fill: #fff;"/>
    <path id="m" data-name="V" d="m1595.77,87.04h35.38l34.34,39.58c.16.23,2.43,3.41,7.28,3.81,3.77.3,7.52-1.21,9.37-3.81,12.49-13.19,24.97-26.39,37.46-39.58h34.34l-62.43,63.94c-3.02,5.2-10.07,8.53-17.69,8.37-7.25-.15-13.78-3.43-16.65-8.37-20.46-21.31-40.93-42.62-61.39-63.94Z" style="fill: #020100;"/>
    <polygon id="n" data-name="E" points="1767.46 87.04 1875.68 86.98 1855.91 101.98 1797.64 101.98 1797.64 113.68 1875.68 113.68 1859.03 128.9 1795.56 128.9 1796.6 142.67 1875.68 142.67 1857.99 157.83 1767.46 157.83 1767.46 87.04" style="fill: #020100;"/>
    <path id="o" data-name="R" d="m1912.1,87.04l-20.81,14.94h94.69c6.04,1.89,9.8,6.31,9.37,10.94-.39,4.11-4.03,7.76-9.37,9.41-31.56.29-63.13.58-94.69.87v35.39c8.67-.25,17.34-.51,26.01-.76.35-6.85.69-13.7,1.04-20.55l48.91.76,18.73,19.79h43.7l-36.42-22.83c17.34-.65,31.05-10.5,32.26-22.07,1.37-13.08-13.52-25.46-33.3-25.88h-80.12Z" style="fill: #020100;"/>
    <path id="p" data-name="M" d="m1007.88,288.19h-29.66c7.98-19.03,15.96-38.06,23.93-57.09,1.63-8.95,12.84-14.35,22.11-12.75,7.03,1.21,12.68,6.4,13.27,12.75,8.32,9.51,16.65,19.03,24.97,28.54h13.53l27.05-36.91c2.91-4.47,9.21-7.13,15.61-6.66,8.5.62,12.32,6.39,12.49,6.66,8.67,21.82,17.34,43.64,26.01,65.46h-32.26l-8.32-32.73c.49-3.53-3.12-6.09-6.05-5.99-2.81.09-5.95,2.66-5.4,5.99-7.28,10.91-14.57,21.82-21.85,32.73h-28.1l-24.97-32.73c.48-4.29-3.14-7.36-5.98-7.42-2.9-.06-6.88,2.97-6.5,7.42-3.3,10.91-6.59,21.82-9.89,32.73Z" style="fill: #020100;"/>
    <path id="q" data-name="upO" d="m1163.19,242.91c-.26,6.85-.52,13.7-.78,20.55.71,2.95,2.43,7.71,7.02,12.56,7.75,8.17,18.61,11.21,22.63,12.18h72.58c4.16-.37,14.46-1.69,24.19-7.61,8.91-5.42,12.63-11.84,14.05-14.75v-22.36c-3.07-3.95-8.22-9.5-16.39-14.84-7.49-4.9-14.89-7.9-20.29-9.7-10.19-1.58-23.17-2.91-38.24-2.85-14.03.05-26.19,1.3-35.9,2.79-3.84.99-11.26,3.34-17.95,8.63-7.59,6-10.06,12.48-10.93,15.41Z" style="fill: #020100;"/>
    <path id="r" data-name="dowO" d="m1192.06,245.76c-2.65,3.54-3.12,7.42-3.12,7.42-.64,5.23,1.91,9.21,3.12,10.85,3.22,2.15,17.96,11.53,40.58,11.42,22.13-.11,36.5-9.21,39.8-11.42,5.41-3.09,8.15-7.93,7.02-12.56-1.15-4.71-5.84-7.36-7.02-7.99-6.48-3.36-21.77-10.22-42.14-9.7-2.21.06-30,.98-38.24,11.99Z" style="fill: #fff;"/>
    <path id="s" data-name="R" d="m1340.93,218.52l-20.81,14.94h94.69c6.04,1.89,9.8,6.31,9.37,10.94-.39,4.11-4.03,7.76-9.37,9.41-31.56.29-63.13.58-94.69.87v35.39c8.67-.25,17.34-.51,26.01-.76.35-6.85.69-13.7,1.04-20.55l48.91.76,18.73,19.79h43.7l-36.42-22.83c17.34-.65,31.05-10.5,32.26-22.07,1.37-13.08-13.52-25.46-33.3-25.88h-80.12Z" style="fill: #020100;"/>
    <path id="t" data-name="upO" d="m1464.57,242.88c-.26,6.85-.52,13.7-.78,20.55.71,2.95,2.43,7.71,7.02,12.56,7.75,8.17,18.61,11.21,22.63,12.18h72.58c4.16-.37,14.46-1.69,24.19-7.61,8.91-5.42,12.63-11.84,14.05-14.75v-22.36c-3.07-3.95-8.22-9.5-16.39-14.84-7.49-4.9-14.89-7.9-20.29-9.7-10.19-1.58-23.17-2.91-38.24-2.85-14.03.05-26.19,1.3-35.9,2.79-3.84.99-11.26,3.34-17.95,8.63-7.59,6-10.06,12.48-10.93,15.41Z" style="fill: #020100;"/>
    <path id="u" data-name="dowO" d="m1493.45,245.73c-2.65,3.54-3.12,7.42-3.12,7.42-.64,5.23,1.91,9.21,3.12,10.85,3.22,2.15,17.96,11.53,40.58,11.42,22.13-.11,36.5-9.21,39.8-11.42,5.41-3.09,8.15-7.93,7.02-12.56-1.15-4.71-5.84-7.36-7.02-7.99-6.48-3.36-21.77-10.22-42.14-9.7-2.21.06-30,.98-38.24,11.99Z" style="fill: #fff;"/>
    <path id="v" data-name="C" d="m1744.2,218.93l-14.57,15.98h-67.64c-9.75,3.04-16.25,9.88-16.65,17.51-.42,8.15,6.21,15.76,16.65,19.03h82.21l-18.73,18.27h-63.47c-25.56-2.75-43.96-19.25-42.66-37.3,1.2-16.72,19.05-31,42.66-33.49h82.21Z" style="fill: #020100;"/>
    <path id="w" data-name="C" d="m1879.79,218.93l-14.57,15.98h-67.64c-9.75,3.04-16.25,9.88-16.65,17.51-.42,8.15,6.21,15.76,16.65,19.03h82.21l-18.73,18.27h-63.47c-25.56-2.75-43.96-19.25-42.66-37.3,1.2-16.72,19.05-31,42.66-33.49h82.21Z" style="fill: #020100;"/>
    <path id="x" data-name="upO" d="m1890.55,242.88c-.26,6.85-.52,13.7-.78,20.55.71,2.95,2.43,7.71,7.02,12.56,7.75,8.17,18.61,11.21,22.63,12.18h72.58c4.16-.37,14.46-1.69,24.19-7.61,8.91-5.42,12.63-11.84,14.05-14.75v-22.36c-3.07-3.95-8.22-9.5-16.39-14.84-7.49-4.9-14.89-7.9-20.29-9.7-10.19-1.58-23.17-2.91-38.24-2.85-14.03.05-26.19,1.3-35.9,2.79-3.84.99-11.26,3.34-17.95,8.63-7.59,6-10.06,12.48-10.93,15.41Z" style="fill: #020100;"/>
    <path id="y" data-name="dowO" d="m1919.42,245.73c-2.65,3.54-3.12,7.42-3.12,7.42-.64,5.23,1.91,9.21,3.12,10.85,3.22,2.15,17.96,11.53,40.58,11.42,22.13-.11,36.5-9.21,39.8-11.42,5.41-3.09,8.15-7.93,7.02-12.56-1.15-4.71-5.84-7.36-7.02-7.99-6.48-3.36-21.77-10.22-42.14-9.7-2.21.06-30,.98-38.24,11.99Z" style="fill: #fff;"/>
  </g>
</svg>