<?xml version="1.0" encoding="UTF-8"?>
<svg id="b" data-name="Layer 2" xmlns="http://www.w3.org/2000/svg" viewBox="0 0 676.3 674.22">
  <g id="c" data-name="Layer 1">
    <g>
      <path d="m454.18,19.93c.68.32,1.36.64,2.04.95,1.84,1.89,3.69,3.77,6,6.14,1.7,3.43,3.69,7.84,6.05,12.03.7,1.24,2.44,1.88,3.71,2.8.73-1.15,1.39-2.35,2.21-3.45.6-.8,1.31-1.59,2.15-2.1.2-.12,1.35.79,1.63,1.42,2.82,6.4,2.79,6.4,9.37,3.27,2.8-1.33,5.09-1.65,5.89,2.38.66,3.34,2.3,5.8,6.33,5.81.88,0,2.24,1.29,2.53,2.24,1.31,4.32,3.86,6.85,8.53,6.94,3.23.07,6.56-.27,9.65.41,3.85.85,7.45,2.75,11.26,3.86,2.72.79,3.34,2.34,3.79,4.98.43,2.54,1.7,5.55,3.62,7.06,2.62,2.08,3.26,4.23,3.25,7.24-.03,9.25,2.78,11.29,11.56,8.82,3.91-1.1,6.97-.97,10.67,2.38,3.05,2.76,6.98,7.64,12.83,4.88l.94.93c.89,6.36,4.49,9.95,9.42,9.38,0,0,.29.17.28.17.3,1.14.6,2.27.91,3.41.33,1.17,1.34,2.76.91,3.43-2.32,3.64-.22,6.61.94,9.8.95,2.61,2.21,5.27,2.35,7.96.18,3.44,1.78,4.2,4.73,5.12,3.83,1.2,8.54,2.68,10.62,5.62,3.25,4.61,5.28,3.01,8.14.49.55.57,1.1,1.14,1.65,1.72,1.69,2.99,3.39,5.98,5.08,8.98-.36,1.55-1.01,3.09-1.04,4.65-.12,5.98-.05,11.97-.05,17.96,0,8.63,1.01,9.53,9.45,10.55,1.88.23,4.62,1.85,5.12,3.42,1.89,5.92,3.71,12.03,4.26,18.18.72,8.1,1.55,9.62,9.79,10.23,1.49.11,2.99,0,4.49,0,.58,1.35,1.15,2.69,1.73,4.04-3.07-.04-4.09,1.43-3.59,4.42.44,2.58.7,5.23.72,7.85.09,8.45-.15,16.91.18,25.35.07,1.82,1.93,5.05,3.06,5.09,6.36.23,7.27,3.83,6.82,8.98-.62,7.12,5.82,11.07,7.94,16.99.11.3,1.23.23,1.88.33.32,5.33.65,10.66.97,16-2.69,1.7-2.73,3.37.06,5,.3,1,.61,2,.91,3-.84.92-2.26,1.74-2.44,2.77-1.26,7.56-2.48,15.13-3.27,22.75-.46,4.43-.14,8.94-.07,13.42.14,9.04.32,18.08.54,27.12.1,3.99.32,7.98.48,11.97l-1.19,7.98c-4.05,1.03-2.93,3.57-1.79,6.12-.09,1.29-.17,2.59-.26,3.88-.27.67-.54,1.33-.81,2-.12,1-.24,1.99-.36,2.99-5.48.1-3.64,2.53-1.6,5.03-.1.66-.21,1.32-.31,1.99-.18.69-.36,1.38-.54,2.07-1.04,2.98-2.08,5.97-3.12,8.95-6.09,3.26-8.49,10.11-5.95,17.02-.34,1-.68,1.99-1.01,2.99-5.89.29-4.2,3.81-3.02,7.11-.43,1.74-.86,3.48-1.29,5.22-6.66.6-8.3,2.39-6.94,5.81-2.14,2.97-3.88,5.37-5.62,7.78,1.66.61,3.33,1.23,4.99,1.84-1.49,3.4-2.97,6.8-4.46,10.2-2.1,1.87-4.21,3.74-6.32,5.61.54.47,1.08.95,1.62,1.42-1.54,2.73-3.07,5.47-4.61,8.2-.22-.14-.44-.27-.66-.41.17.2.34.39.51.59-2.04,3.23-4.07,6.45-6.11,9.68-8.54-.21-9.9,1.6-7.58,10.05.09.31.26.6.39.89-.43.75-.86,1.5-1.29,2.25-1.99-.12-4.65-.88-2.61,2.78-.33.73-.65,1.46-.98,2.19-2.36-2.87-4.77-2.78-6.91.12-2.13,2.88-4.13,5.95.16,8.8-1.05.98-2.1,1.95-3.14,2.93-1.77.3-3.63.37-5.29.97-2.05.74-4.48,1.45-5.79,2.99-3.45,4.05-6.34,8.57-9.56,12.83-1.8,2.39-2.77,4.56.38,6.58-1.31,1.1-2.61,2.21-3.92,3.3-5.58-1.35-7.69-.11-11.45,5.85-1.22,1.95-3.7,5.04-4.87,4.75-4.75-1.2-6.4,1.45-7.79,4.83-1.22,2.96-5.12,5.13-2.81,9.17-.59.47-1.19.94-1.78,1.4-2.92-3.63-5.14-3.45-7.28.28-1.07,1.86-2.93,3.26-4.12,5.08-.91,1.38-1.32,3.08-1.96,4.63-.1.28-.3.41-.6.4-8.03-3.04-15.58,2.02-15.26,10.23-.41.45-.81.9-1.22,1.35-.57.12-1.13.24-1.7.37-8-2.14-12.07.25-13.22,7.76-.97.5-1.93,1-2.9,1.49-.4-.57-.79-1.14-1.19-1.71-.27.97-.53,1.94-.8,2.9-1.59.73-3.18,1.46-4.77,2.19-4.19-2.69-10.53-2.12-12.52,1.65-1.6,3.03-3.07,5.19-6.92,4.88-.53-.04-1.25,2.44-1.88,3.75l-2,.99c-8.13-1.89-10.32-1.12-11.93,4.2-1.69.61-3.37,1.22-5.06,1.83-.67.26-1.34.51-2.01.77-1,.39-2.01.78-3.01,1.17-.66.25-1.33.51-1.99.76-.65.16-1.29.31-1.94.47-.56-.59-1.11-1.18-1.67-1.77-.74,1.04-1.48,2.09-2.21,3.13-1.72.48-3.44.96-5.16,1.45-6.4-2.15-8.77-1.49-10.02,2.77-1.64.42-3.28.84-4.92,1.26-6.95-2.39-11.53-1.49-14.08,2.76-2.68.7-5.36,1.4-8.04,2.1-.65.29-1.31.58-1.96.88-1.33.01-2.66.03-4,.04-.58-.89-1.15-1.78-2.47-3.83-.29,2.65-.42,3.74-.54,4.83-.66-.04-1.32-.08-1.99-.12-.61-1.07-1.15-3.02-1.84-3.08-5.25-.41-10.53-.58-15.79-.6-24.98-.05-49.95-.03-74.93,0-3.15,0-6.28.46-7.73-3.58-.39-1.08-2.4-1.52-3.54-2.41-1.62-1.27-3.93-2.42-4.51-4.12-1.1-3.17-2.84-4.03-5.92-3.95-5.15.14-10.6,1-15.42-.31-8.77-2.4-17.36-1.72-26.1-.92-3.07.28-5.99.16-6.39-4.2-.26-2.91-.91-5.9-2.01-8.59-.64-1.56-2.35-2.9-3.89-3.78-1.02-.57-2.65-.37-3.93-.11-8.96,1.85-17.82-4.12-26.82-.31-.48.2-1.45-.64-2.14-1.07-5.24-3.19-10.48-6.37-15.68-9.62-1.83-1.14-4.08-2.11-5.19-3.79-2.63-3.95-4.43-8.44-7.12-12.34-.87-1.25-3.43-1.71-5.27-1.82-2.36-.14-4.76.43-7.29.71-.92-4.35-1.71-8.23-2.56-12.1-.8-3.63-2.6-5.8-6.82-5.79-7.83.02-8.1-.42-9.11-8.78-.7-5.78-2.17-7.1-7.95-7.15-6.09-.05-7.47-1.3-8.01-7.38-.15-1.65.28-3.41-.13-4.97-.49-1.9-1.58-3.64-2.41-5.45-1.17,1.73-3.08,3.35-3.34,5.2-.41,2.93-1.14,5.33-4.33,4.41-1.87-.54-4.61-2.88-4.59-4.38.1-7.42-4.14-10.44-10.33-12.64-2.18-.77-4.83-3.07-5.32-5.13-1.16-4.89-.92-10.09-1.75-15.09-.27-1.61-1.92-4.05-3.21-4.25-5.49-.82-11.09-.94-16.65-1.32-.39-.64-.78-1.28-1.17-1.92,2.57-5.86,1.39-10.13-3.43-13.96-1.72-1.36-3.72-3.18-4.19-5.13-1.17-4.8-1.08-9.91-2.37-14.66-.89-3.27-2.55-7.37-5.15-8.86-3.1-1.77-6.44-2.25-7.78-6.38-1.1-3.4-3.24-6.45-4.75-9.74-.27-.59.42-1.55.48-2.36.36-4.87,1.15-9.77.84-14.6-.24-3.72-1.95-7.21-7.02-6.48-.65.09-1.82-.45-2.05-.99-1.51-3.59-3.29-7.16-4.1-10.93-1.08-5.05-1.28-10.28-1.97-15.42-1.75-12.93-3.48-25.86-5.38-38.77-.66-4.5-1-9.42-6.78-10.81,0-.67,0-1.33,0-2,4.98-5.7,5.84-12.15,2.42-18.41,1.45-2.23,2.56-4.89,4.49-6.64,2.76-2.49,3.32-4.94,2.29-8.38-.55-1.85-.88-4.44,0-5.93,4.08-6.9,2.95-14.1,1.81-21.29-.83-5.27-2.16-10.46-3.39-16.29,6.53.79,7.5-2.49,7.23-6.95-.15-2.49-.03-4.99-.03-7.49,0-4.23,0-8.45,0-12.64h-5.67c.19-.68.38-1.35.57-2.03.99-.05,2.71.16,2.84-.2.94-2.57,1.69-5.23,2.12-7.93.07-.46-1.71-1.22-2.63-1.83.31-1,.62-2,.93-3,3.37-2.16,7.46-3.7,9.98-6.6,7.46-8.6,3.7-18.73,2.83-28.41.29-.68.58-1.36.88-2.05,6.06,1.22,12.13,2.63,18.33-1.61-1.51-2.14-2.88-4.08-4.24-6.01-5.84,3.94-6.98,3.44-8.99-3.48.28-.65.56-1.29.85-1.94,2.49,1.06,4.98,2.11,7.5,3.18.65-1.25,1.04-3.44,2.28-4.14,4.11-2.3,7.55-5.48,11.23-8.07,5.11-3.59,5.48-8.52,5.85-12.59,1.04-11.45.45-11.37,11.2-13.47,1.58-.31,3.77-2.55,3.91-4.05.23-2.58,1.93-6.43-2.64-7.64-4.06,6.5-6.08,6.53-10.74.4-.25-.33-.89-.35-1.36-.52.68-1,1.35-1.99,2.03-2.99,8.99-.04,12.84-3.22,12.69-10.49.3-.14.59-.37.89-.39.99-.09,1.99-.11,2.98-.13,6.26-.12,10.26-4.35,10.39-10.53.03-1.62,1-3.34,1.88-4.81,3.04-5.11,7.43-9.58,7.38-16.1,0,0,.27-.32.27-.32,3.01.32,5.99,3.29,8.5.11,0-2.4-.04-5.91,1.14-6.38,4.1-1.64,8.63-2.16,12.96-3.24,1.08-.27,2.71-.91,2.91-1.67,1.18-4.66,2.01-9.4,2.96-14.12.55-.27,1.1-.53,1.65-.8.74.57,1.76,1.8,2.18,1.62,4.71-2.01,8.29.66,12.08,2.61.85.43,2.06.83,2.87.55,2.64-.91,5.17-2.14,7.74-3.24-1.27-2.04-2.54-4.07-3.79-6.12-.15-.25-.13-.61,0,.03,3.85-4.03,7.28-7.61,10.85-11.35,2.73,3.89,5.59,2.74,8.11-.14,1.79-2.05,2.71-5.41,4.87-6.49,5.46-2.74,11.47-3.97,16.34-8.37,2.87-2.59,7.7-2.88,11.4-4.72,1.25-.62,2.12-2.74,2.44-4.32.27-1.34-.49-2.89-.79-4.35,1.35-.61,2.71-1.22,4.06-1.83,3.48.66,6.95,1.33,11.44,2.19-.94-2.82-1.49-4.44-2.03-6.06,1.2-.34,2.39-.68,3.59-1.02.41,1.22.81,2.45,1.09,3.3,2.17-.8,3.73-2.01,4.95-1.73,4.58,1.05,8.99,2.89,13.59,3.82,2.63.53,5.49-.11,8.25-.22-.19-1.96-.66-3.94-.46-5.86.12-1.16,1.38-3.22,1.95-3.17,5.82.59,6.02-2.97,5.63-7.11,1.66-.32,3.33-.64,4.99-.96.23,6.32,1.55,7.06,7.11,4.15,1.06-.55,2.84-1.25,3.51-.78,8.17,5.83,16.89-1.04,25.21,1.16.8.21,1.98-1.73,3.16-2.11,1.88-.6,4.38-1.63,5.81-.9,5.97,3.06,11.07-2.33,16.72-1.25.31.06,1.19-.92,1.18-1.41-.11-5.52,3.14-4.9,6.92-4.17,2.4.46,5.02.42,7.42-.03,1.44-.27,2.65-1.76,3.96-2.69,1.33,0,2.66,0,4,0,.45.65.75,1.59,1.37,1.9,5.46,2.74,10.84,5.7,16.53,7.89,3.27,1.26,7.03,1.47,10.6,1.63,3.44.16,6.92-.66,10.35-.5,10.54.49,21.09,1.12,31.61,1.96,4.9.39,9.75,1.47,14.64,2.06,1.62.2,3.31-.16,4.96-.26,1.33,0,2.66-.01,3.99-.02,0,0-.11.33-.11.33,1.75,2.18,3.29,4.58,5.3,6.48,3.65,3.44,4.65,3.07,6.8-1.77ZM127.93,266.08c-.26.34-.52.69-.78,1.03-.3.33-.6.66-.9,1-5.15.32-12.27,8.06-11.8,12.95.04.38,1.01.68,1.55,1.01.26.11.37.31.33.59,0,.82-.25,1.74.04,2.44,2.34,5.71,3.96,11.44,1.98,17.67-.15.48,1.46,1.52,2.26,2.3,0,3,0,6,0,9-1.26.38-2.49.96-3.78,1.11-5.18.62-6.1,3.79-5.77,8.38.35,4.97.08,9.99.08,14.99,0,3.43-.79,7.14,4.06,8.4.86.22,1.73,2.08,1.82,3.25.25,3.15.34,6.35-.02,9.48-.17,1.42-1.29,3.51-2.44,3.88-3.43,1.1-3.45,3.48-3.45,6.28.04,21.16.11,42.33-.04,63.49-.04,5.21-.29,9.97,7.15,8.99.43-.06.95.29,1.38.54,9.02,5.32,18.68,1.27,28.01,1.76,8.45.45,17,.69,25.4-1.32,2.32-.55,4.9.03,7.24-.47,7.03-1.51,10.63,3.12,10.9,8.16.38,7.09.46,7.08,7.25,7.09,8.56.01,8.72.17,8.73,8.66q0,7.33,7.03,7.34c8.87.02,8.96.1,8.97,8.91,0,.83.06,1.67,0,2.5-.29,3.52,1.44,4.63,4.79,4.63,44.16-.06,88.32-.07,132.48.01,3.85,0,4.86-1.69,4.79-5.18-.15-6.83.12-13.67-.1-20.49-.15-4.79,1.89-6.51,6.57-6.43,11.16.18,22.33.06,33.49.06q7.37,0,8.01-7.37c.45-5.18,2.53-6.55,7.4-5.46,1.96.44,4.17.09,6.22-.24,4.85-.79,9.72-2.75,14.49-2.47,8.32.48,16.52,2.79,24.84,3.37,5,.34,10.16-.97,15.19-1.86,4.76-.84,10.39,1.8,14.16-3.38.25-.34,1.32-.4,1.84-.19,2.26.95,4.5,1.97,6.66,3.13,5.23,2.81,14.57-1.39,16.2-7.34,2.33,0,4.66,0,7,0,1.52,2.62,2.68,5.56,4.64,7.79,2.66,3.03,6.22,1.87,7.17-2.05.3-1.25.14-2.61.19-3.92,1.67,0,3.33,0,5,0,2.89,1.69,5.76,3.43,8.69,5.05.83.46,1.85.87,2.76.82,4.17-.2,8.33-.62,12.49-.86,3.81-.22,6.18-1.49,6.16-5.97-.01-3.08.82-6.19,1.51-9.24,1.6-7.04.68-13.12-5.21-18.14-1.75-1.5-2.64-4.31-3.32-6.69-.73-2.55-.75-5.31-1.08-7.97,0-.67,0-1.33,0-2-.84-2.34-.99-5.47-2.63-6.88-6.71-5.74-5.88-12.38-3.38-19.5.22-.61.13-1.33.31-1.96,2.14-7.73-.07-13.62-6.91-18-2.43-1.56-3.18-3.1-2.96-6.42.26-3.96-.83-8.73-3.04-11.99-4.67-6.9-6.3-13.85-4.18-21.85.33-1.23.13-2.92-.5-4.02-1.79-3.16-4.4-5.92-5.81-9.21-2.26-5.27-4.78-10.74-5.33-16.31-.35-3.53-.11-6.24-3.32-8.46-.98-.68-1.44-2.72-1.43-4.13.03-4.42.78-8.87.5-13.26-.23-3.7-1.3-7.4-2.44-10.96-.49-1.53-1.93-3.53-3.28-3.86-5.1-1.21-10.33-1.88-15.54-2.61-1.23-.17-2.53.22-3.8.3-3.41.23-6.84.72-10.23.57-7.2-.31-13.93-1.61-20.08,5.09-2.6,2.83-6.01,3.65-7.4,8.74-1.63,5.97-6.76,11.02-10.51,16.37-.7.99-2.04,2.02-3.18,2.13-5.77.57-11.57,1.15-17.35,1-1.54-.04-2.98-2.71-4.51-4.12-1.37-1.25-2.63-3.04-4.25-3.49-2.16-.61-4.71.23-6.93-.29-1.69-.39-4.4-1.89-4.43-2.96-.17-5.48-3.74-4.93-7.31-4.92-9.02.03-9.07-.06-9.09-8.78-.01-7.2-.01-7.18-7.16-7.21-10.66-.05-21.42.79-31.94-.48-9.99-1.21-19.8-1.28-29.73-.59-3.18.22-6.53,1.63-9.41-1.3-.51-.52-2.14-.04-3.22.15-4.02.7-8.01,2.04-12.03,2.12-12.82.28-25.65.22-38.48.06-7.63-.09-15.25-.77-22.87-.82-1.38-.01-2.77,1.71-4.15,2.63-10.44.06-20.87.19-31.31.17-17.23-.04-34.46-.17-51.68-.26-.1-3.81-2.99-2.53-4.97-2.49-.34,0-.63,1.98-.94,3.05-4.09,5.25-8.19,10.51-12.28,15.76-.59,1.03-1.19,2.06-1.78,3.09-.04.3-.08.59-.12.89-1.66,2.28-3.33,4.56-4.99,6.84-.71.4-1.42.8-2.13,1.2Zm-35.74-134.63c-.8.02-1.61.04-2.41.07.08,1.56.11,3.12.34,4.65.02.12,1.35.06,2.08.08v-4.8ZM27.94,254.26c-.27.69-.61,1.13-.53,1.48.07.32.59.54.91.81.2-.38.57-.78.55-1.15-.02-.33-.49-.62-.93-1.14Z"/>
      <path d="m549.28,600.42c-2.31-4.04,1.59-6.22,2.81-9.17,1.4-3.38,3.04-6.03,7.79-4.83,1.18.3,3.65-2.8,4.87-4.75,3.75-5.96,5.86-7.2,11.45-5.85-3.01,3.25-5.79,6.75-9.08,9.68-5.78,5.15-11.88,9.97-17.84,14.92Z" style="fill: #020203;"/>
      <path d="m580.12,572.52c-3.15-2.03-2.18-4.2-.38-6.58,3.22-4.26,6.1-8.78,9.56-12.83,1.31-1.54,3.74-2.25,5.79-2.99,1.67-.6,3.52-.67,5.29-.97-6.75,7.79-13.51,15.58-20.26,23.37Z" style="fill: #020203;"/>
      <path d="m518.27,622.43c-.32-8.21,7.23-13.27,15.26-10.23-5.09,3.41-10.17,6.82-15.26,10.23Z" style="fill: #020203;"/>
      <path d="m603.53,546.22c-4.29-2.85-2.29-5.91-.16-8.8,2.14-2.9,4.55-2.99,6.91-.12-2.25,2.97-4.5,5.95-6.75,8.92Z" style="fill: #020203;"/>
      <path d="m534.13,611.8c.64-1.56,1.05-3.25,1.96-4.63,1.19-1.81,3.05-3.21,4.12-5.08,2.14-3.73,4.36-3.91,7.28-.28-4.45,3.33-8.91,6.66-13.36,9.98Z" style="fill: #020203;"/>
      <path d="m615.15,530.08c-.13-.3-.3-.58-.39-.89-2.32-8.45-.96-10.26,7.58-10.05-2.4,3.65-4.8,7.3-7.19,10.95Z" style="fill: #020203;"/>
      <path d="m633.22,501.08c-.54-.47-1.08-.95-1.62-1.42,2.11-1.87,4.21-3.74,6.32-5.61l-2.8,5.91c-.63.37-1.26.75-1.89,1.12Z" style="fill: #020203;"/>
      <path d="m611.26,535.11c-2.04-3.66.62-2.9,2.61-2.78-.87.93-1.74,1.85-2.61,2.78Z" style="fill: #020203;"/>
      <path d="m206.09,26.91c.3,1.46,1.07,3.01.79,4.35-.32,1.58-1.19,3.69-2.44,4.32-3.69,1.84-8.53,2.14-11.4,4.72-4.88,4.4-10.89,5.63-16.34,8.37-2.16,1.08-3.07,4.44-4.87,6.49-2.52,2.88-5.38,4.03-8.11.14-3.57,3.74-7,7.32-10.85,11.35-.12-.64-.14-.28,0-.03,1.24,2.05,2.52,4.08,3.79,6.12-2.57,1.11-5.1,2.33-7.74,3.24-.81.28-2.02-.11-2.87-.55-3.8-1.95-7.37-4.62-12.08-2.61-.42.18-1.44-1.05-2.18-1.62,7.64-5.7,15.28-11.39,22.91-17.09.87-.65,1.72-1.33,2.59-2,.96-.64,1.93-1.29,2.89-1.93,1.06-.68,2.11-1.37,3.17-2.05,9.94-5.33,19.88-10.65,29.82-15.98.67-.32,1.35-.64,2.02-.96,1.33-.68,2.66-1.36,3.98-2.05,2.3-.74,4.61-1.49,6.91-2.23Z" style="fill: #020203;"/>
      <path d="m63.15,143.06c.46.16,1.11.19,1.36.52,4.66,6.13,6.68,6.1,10.74-.4,4.57,1.21,2.87,5.06,2.64,7.64-.13,1.5-2.33,3.74-3.91,4.05-10.75,2.1-10.16,2.02-11.2,13.47-.37,4.07-.74,9-5.85,12.59-3.68,2.58-7.12,5.77-11.23,8.07-1.24.69-1.63,2.89-2.28,4.14-2.51-1.07-5.01-2.12-7.5-3.18,2.09-4.45,4.18-8.9,6.28-13.34.67-1.42,1.36-2.84,2.05-4.26.67-1.09,1.33-2.18,2-3.26.71-1.32,1.42-2.63,2.13-3.95,4.27-6.67,8.53-13.35,12.83-20,.51-.79,1.29-1.4,1.94-2.09Z" style="fill: #020203;"/>
      <path d="m101.4,97.62c.05,6.52-4.34,10.99-7.38,16.1-.87,1.47-1.84,3.19-1.88,4.81-.13,6.18-4.12,10.41-10.39,10.53-.99.02-1.99.05-2.98.13-.31.03-.6.25-.89.39.15,7.27-3.7,10.45-12.69,10.49,10.76-15.27,22.85-29.4,36.21-42.46Z" style="fill: #020203;"/>
      <path d="m130.14,72c-.95,4.71-1.78,9.46-2.96,14.12-.19.77-1.83,1.4-2.91,1.67-4.33,1.09-8.86,1.61-12.96,3.24-1.18.47-1.15,3.98-1.14,6.38-2.51,3.17-5.49.21-8.5-.11l28.48-25.3Z" style="fill: #020203;"/>
      <path d="m655.25,220.02c-1.5,0-3,.12-4.49,0-8.23-.61-9.07-2.13-9.79-10.23-.55-6.15-2.37-12.26-4.26-18.18-.5-1.57-3.24-3.2-5.12-3.42-8.44-1.02-9.45-1.93-9.45-10.55,0-5.99-.07-11.98.05-17.96.03-1.56.68-3.1,1.04-4.65.57.37,1.15.74,1.72,1.1.98,1.67,1.97,3.34,2.95,5.01,5.02,9.38,10.29,18.65,14.99,28.18,3.82,7.75,6.98,15.82,10.44,23.75.25.37.5.75.75,1.12.09.62.18,1.23.28,1.85.29,1.32.58,2.65.88,3.97Z" style="fill: #020203;"/>
      <path d="m654.09,214.2c-.25-.37-.5-.75-.75-1.12.25.37.5.75.75,1.12Z" style="fill: #9b9da0;"/>
      <path d="m58.13,522.06c5.56.38,11.16.5,16.65,1.32,1.3.19,2.95,2.64,3.21,4.25.82,4.99.59,10.2,1.75,15.09.49,2.06,3.15,4.36,5.32,5.13,6.18,2.2,10.43,5.22,10.33,12.64-.02,1.5,2.72,3.85,4.59,4.38,3.19.92,3.92-1.48,4.33-4.41.26-1.85,2.17-3.48,3.34-5.2.83,1.81,1.92,3.55,2.41,5.45.4,1.56-.02,3.32.13,4.97.54,6.09,1.93,7.33,8.01,7.38,5.78.05,7.25,1.38,7.95,7.15,1.01,8.36,1.28,8.8,9.11,8.78,4.22-.01,6.02,2.16,6.82,5.79.85,3.87,1.64,7.74,2.56,12.1,2.53-.28,4.93-.86,7.29-.71,1.83.11,4.4.57,5.27,1.82,2.69,3.89,4.49,8.39,7.12,12.34,1.11,1.68,3.37,2.64,5.19,3.79,5.2,3.25,10.44,6.43,15.68,9.62.7.43,1.66,1.27,2.14,1.07,9-3.81,17.87,2.16,26.82.31,1.27-.26,2.91-.46,3.93.11,1.55.87,3.26,2.22,3.89,3.78,1.1,2.7,1.75,5.68,2.01,8.59.4,4.36,3.32,4.48,6.39,4.2,8.74-.8,17.32-1.48,26.1.92,4.81,1.31,10.26.45,15.42.31,3.07-.08,4.82.78,5.92,3.95.59,1.69,2.89,2.84,4.51,4.12,1.14.89,3.15,1.33,3.54,2.41,1.45,4.04,4.58,3.58,7.73,3.58,24.98-.02,49.95-.04,74.93,0,5.27.01,10.55.18,15.79.6.69.05,1.23,2.01,1.84,3.08-14.52,1.1-29.04,2.2-43.57,3.28-1.81.13-3.64.13-5.46.19-12.51-.73-25.09-.86-37.5-2.37-12.59-1.53-25-4.46-37.5-6.74-2.57-.47-5.18-.76-7.77-1.13-.4-.26-.8-.53-1.2-.79-.98-.12-1.96-.24-2.94-.36-28-8.79-55.1-19.74-80.86-33.86-5.42-3.78-10.93-7.45-16.25-11.37-10.25-7.55-20.47-15.13-30.53-22.91-5.01-3.87-9.64-8.23-14.45-12.37-.36-.25-.73-.5-1.09-.74,0,0-.09-.13-.09-.13-10.84-11.83-21.68-23.65-32.53-35.47-.39-.38-.77-.77-1.16-1.15,0,0,.11.08.11.08-.72-1.01-1.44-2.02-2.16-3.03-.95-1.29-1.89-2.59-2.84-3.88-2.93-4.31-5.89-8.6-8.78-12.94-.61-.91-.98-1.99-1.47-2.98Z" style="fill: #020203;"/>
      <path d="m107.04,581.57c.36.25.73.5,1.09.74l-1.12,1.22c0-.65.02-1.31.03-1.96Z" style="fill: #aeb0b4;"/>
      <path d="m616.5,144.34c-2.86,2.52-4.89,4.12-8.14-.49-2.08-2.95-6.79-4.42-10.62-5.62-2.95-.92-4.55-1.69-4.73-5.12-.14-2.69-1.4-5.35-2.35-7.96-1.16-3.19-3.25-6.16-.94-9.8.43-.68-.58-2.26-.91-3.43-.32-1.13-.61-2.27-.91-3.41.42.19.83.39,1.25.58,6.14,7.65,12.35,15.24,18.4,22.96,3.13,3.99,5.98,8.19,8.96,12.3Z" style="fill: #020203;"/>
      <path d="m624.95,156.13c-.57-.37-1.15-.74-1.72-1.1-1.69-2.99-3.39-5.98-5.08-8.98.7-.42,1.4-.84,2.64-1.58-.12,4.59,7.74,5.76,4.16,11.66Z" style="fill: #a1a2a6;"/>
      <path d="m71.21,541.86c.72,1.01,1.44,2.02,2.16,3.03-3.14.72-2.51-1.25-2.16-3.03Z" style="fill: #b4b6ba;"/>
      <path d="m73.26,544.81c.39.38.77.77,1.16,1.15-.39-.38-.77-.77-1.16-1.15Z" style="fill: #b4b6ba;"/>
      <path d="m577.25,98.01c-5.86,2.76-9.78-2.11-12.83-4.88-3.7-3.35-6.76-3.48-10.67-2.38-8.78,2.46-11.59.43-11.56-8.82,0-3.01-.62-5.17-3.25-7.24-1.92-1.52-3.19-4.53-3.62-7.06-.45-2.64-1.07-4.19-3.79-4.98-3.81-1.1-7.41-3.01-11.26-3.86-3.1-.69-6.43-.35-9.65-.41-4.67-.1-7.22-2.62-8.53-6.94-.29-.95-1.66-2.24-2.53-2.24-4.03-.02-5.67-2.47-6.33-5.81-.79-4.03-3.09-3.71-5.89-2.38-6.58,3.13-6.55,3.13-9.37-3.27-.28-.63-1.43-1.54-1.63-1.42-.84.51-1.55,1.3-2.15,2.1-.81,1.09-1.48,2.29-2.21,3.45-1.27-.92-3.01-1.56-3.71-2.8-2.36-4.19-4.36-8.6-6.05-12.03-2.31-2.36-4.15-4.25-6-6.14,5.97,2.08,11.93,4.16,17.9,6.25,6.45,3.28,13.04,6.32,19.32,9.9,11.94,6.81,23.77,13.82,35.5,20.99,6.21,3.8,12.11,8.12,18.15,12.2,5.58,4.93,11.24,9.79,16.72,14.83,4.58,4.21,8.96,8.63,13.43,12.96Z" style="fill: #020203;"/>
      <path d="m587.6,108.33c-4.93.56-8.53-3.02-9.42-9.38,4.97,1.29,6.18,6.35,9.42,9.38Z" style="fill: #020203;"/>
      <path d="m673.99,293.06c-.65-.1-1.77-.03-1.88-.33-2.12-5.92-8.56-9.87-7.94-16.99.45-5.16-.46-8.76-6.82-8.98-1.13-.04-2.99-3.27-3.06-5.09-.33-8.44-.09-16.9-.18-25.35-.03-2.62-.29-5.26-.72-7.85-.5-3,.51-4.47,3.59-4.42,4.04,13.75,8.44,27.41,11.98,41.29,2.32,9.07,3.4,18.47,5.03,27.72Z" style="fill: #020203;"/>
      <path d="m671.18,395.07c-.16-3.99-.39-7.98-.48-11.97-.22-9.04-.4-18.08-.54-27.12-.07-4.47-.39-8.99.07-13.42.79-7.62,2.01-15.19,3.27-22.75.17-1.03,1.59-1.85,2.44-2.77.07,14.28.8,28.59,0,42.81-.66,11.79-3.1,23.47-4.76,35.2Z" style="fill: #020203;"/>
      <path d="m668.2,409.17c-1.14-2.55-2.25-5.09,1.79-6.12-.02.65-.03,1.3-.05,1.95-.58,1.39-1.16,2.78-1.74,4.17Z" style="fill: #020203;"/>
      <path d="m675.02,314.06c-2.79-1.63-2.75-3.3-.06-5,.02,1.67.04,3.34.06,5Z" style="fill: #020203;"/>
      <path d="m471.14,647.06c.63-1.31,1.36-3.79,1.88-3.75,3.86.31,5.32-1.85,6.92-4.88,2-3.77,8.33-4.34,12.52-1.65-6.56,4.58-13.44,8.48-21.33,10.28Z" style="fill: #020203;"/>
      <path d="m502.14,631.91c1.15-7.52,5.22-9.91,13.22-7.76-1.44,1.23-2.88,2.46-4.32,3.69-2.64,1.37-5.28,2.75-7.92,4.12-.33,0-.65,0-.98-.05Z" style="fill: #020203;"/>
      <path d="m405.14,666.86c2.55-4.25,7.13-5.15,14.08-2.76-4.69.92-9.39,1.84-14.08,2.76Z" style="fill: #020203;"/>
      <path d="m457.22,652.25c1.61-5.32,3.79-6.08,11.93-4.2-3.98,1.4-7.95,2.8-11.93,4.2Z" style="fill: #020203;"/>
      <path d="m424.14,662.84c1.24-4.26,3.62-4.92,10.02-2.77-3.34.92-6.68,1.85-10.02,2.77Z" style="fill: #020203;"/>
      <path d="m439.32,658.62c.74-1.04,1.48-2.09,2.21-3.13.56.59,1.11,1.18,1.67,1.77-1.29.46-2.59.91-3.88,1.37Z" style="fill: #020203;"/>
      <path d="m388.14,670.88c.12-1.09.24-2.17.54-4.83,1.32,2.05,1.89,2.94,2.47,3.83-1,.33-2,.67-3,1Z" style="fill: #020203;"/>
      <path d="m497.25,634.59c.27-.97.53-1.94.8-2.9.4.57.79,1.14,1.19,1.71-.66.4-1.33.8-1.99,1.19Z" style="fill: #020203;"/>
      <path d="m395.14,669.84c.65-.29,1.31-.58,1.96-.88-.65.29-1.31.58-1.96.88Z" style="fill: #020203;"/>
      <path d="m445.14,656.79c.66-.25,1.33-.51,1.99-.76-.66.25-1.33.51-1.99.76Z" style="fill: #020203;"/>
      <path d="m450.14,654.86c.67-.26,1.34-.51,2.01-.77-.67.26-1.34.51-2.01.77Z" style="fill: #020203;"/>
      <path d="m3.32,361.06c5.77,1.39,6.11,6.31,6.78,10.81,1.9,12.91,3.63,25.84,5.38,38.77.69,5.14.9,10.37,1.97,15.42.8,3.77,2.59,7.34,4.1,10.93.23.54,1.4,1.08,2.05.99,5.06-.73,6.78,2.76,7.02,6.48.31,4.83-.48,9.73-.84,14.6-.06.81-.75,1.77-.48,2.36,1.51,3.29,3.65,6.34,4.75,9.74,1.34,4.13,4.68,4.61,7.78,6.38,2.6,1.49,4.25,5.59,5.15,8.86,1.3,4.75,1.2,9.86,2.37,14.66.48,1.95,2.48,3.77,4.19,5.13,4.82,3.83,6,8.1,3.43,13.96-3.59-5.5-7.18-10.99-10.76-16.49-1.02-1.58-1.98-3.2-2.97-4.8-4.64-9.61-9.29-19.22-13.93-28.84-5.21-14.98-10.42-29.96-15.61-44.94-.57-1.66-1.05-3.34-1.57-5.02-.61-2.35-1.22-4.71-1.83-7.06-.09-.65-.17-1.3-.26-1.95-.36-1.39-.72-2.78-1.08-4.18,0,0,.07-.03.07-.03-1.29-8.35-2.56-16.71-3.89-25.06-.25-1.6-.75-3.16-1.13-4.74-.23-2.02-.46-4.04-.7-6.06-.1-1.65-.2-3.3-.31-4.94.11-1.66.22-3.33.33-4.99Z" style="fill: #020203;"/>
      <path d="m642.36,483.85c-1.66-.61-3.33-1.23-4.99-1.84,1.74-2.4,3.47-4.81,5.62-7.78-1.36-3.43.28-5.22,6.94-5.81-2.52,5.14-5.04,10.29-7.56,15.43Z" style="fill: #020203;"/>
      <path d="m655.24,453.1c-2.54-6.91-.14-13.77,5.95-17.02-1.98,5.67-3.97,11.35-5.95,17.02Z" style="fill: #020203;"/>
      <path d="m651.21,463.2c-1.18-3.3-2.87-6.81,3.02-7.11-1.01,2.37-2.01,4.74-3.02,7.11Z" style="fill: #020203;"/>
      <path d="m665.17,423.07c-2.05-2.49-3.89-4.92,1.6-5.03-.53,1.68-1.07,3.35-1.6,5.03Z" style="fill: #020203;"/>
      <path d="m667.13,415.05c.27-.67.54-1.33.81-2-.27.67-.54,1.33-.81,2Z" style="fill: #020203;"/>
      <path d="m664.32,427.13c.18-.69.36-1.38.54-2.07-.18.69-.36,1.38-.54,2.07Z" style="fill: #020203;"/>
      <path d="m253.17,663.2c.4.26.8.53,1.2.79-.4-.26-.8-.53-1.2-.79Z" style="fill: #a1a2a6;"/>
      <path d="m29.11,205.05c.87,9.68,4.62,19.81-2.83,28.41-2.52,2.9-6.61,4.44-9.98,6.6-.09-.33-.18-.67-.28-1,.11-.64.22-1.28.33-1.92,3.28-8.71,6.52-17.44,9.87-26.12.79-2.05,1.92-3.98,2.89-5.97Z" style="fill: #020203;"/>
      <path d="m35.08,191.9c2.02,6.92,3.15,7.42,8.99,3.48,1.36,1.93,2.73,3.87,4.24,6.01-6.19,4.24-12.27,2.83-18.33,1.61,1.7-3.7,3.39-7.4,5.09-11.1Z" style="fill: #020203;"/>
      <path d="m46.25,169.1c-.67,1.09-1.33,2.18-2,3.26.67-1.09,1.33-2.18,2-3.26Z" style="fill: #e0e2e6;"/>
      <path d="m344.14.24c-1.31.94-2.52,2.43-3.96,2.69-2.4.45-5.02.49-7.42.03-3.78-.73-7.03-1.35-6.92,4.17,0,.48-.87,1.47-1.18,1.41-5.66-1.08-10.76,4.32-16.72,1.25-1.43-.73-3.93.3-5.81.9-1.18.38-2.37,2.32-3.16,2.11-8.31-2.2-17.04,4.66-25.21-1.16-.66-.47-2.45.23-3.51.78-5.56,2.91-6.89,2.17-7.11-4.15,7.17-1.39,14.34-2.78,21.5-4.2.55-.11,1.04-.56,1.56-.85,19.24-2.46,38.54-3.78,57.94-2.98Z" style="fill: #020203;"/>
      <path d="m258.14,9.22c.39,4.14.19,7.7-5.63,7.11-.57-.06-1.83,2-1.95,3.17-.2,1.92.27,3.9.46,5.86-2.76.11-5.62.76-8.25.22-4.6-.93-9-2.77-13.59-3.82-1.22-.28-2.79.92-4.95,1.73-.28-.86-.69-2.08-1.09-3.3,10.59-3.34,21.19-6.69,31.78-10.03,1.07-.34,2.15-.63,3.22-.94Z" style="fill: #020203;"/>
      <path d="m219.55,21.21c.54,1.62,1.09,3.24,2.03,6.06-4.48-.86-7.96-1.52-11.44-2.19,3.13-1.29,6.27-2.58,9.4-3.87Z" style="fill: #020203;"/>
      <path d="m199.17,29.14l-3.98,2.05,3.98-2.05Z" style="fill: #dadce0;"/>
      <path d="m438.2,14.91c-1.66.1-3.34.45-4.96.26-4.89-.59-9.73-1.67-14.64-2.06-10.52-.84-21.07-1.46-31.61-1.96-3.44-.16-6.92.66-10.35.5-3.57-.17-7.33-.38-10.6-1.63-5.68-2.18-11.07-5.15-16.53-7.89-.62-.31-.92-1.25-1.37-1.9,12.34.93,24.67,1.87,37.01,2.78,1.65.12,3.3.11,4.96.16,1.02.24,2.03.47,3.05.71,6.32.98,12.65,1.97,18.97,2.95,8.2,2.36,16.41,4.7,24.61,7.09.54.16.98.65,1.47.99Z" style="fill: #020203;"/>
      <path d="m190.14,31.06c-.07.12-.14.25-.21.37.07-.13.14-.25.21-.38,0,0,0,0,0,0Z" style="fill: #d6d8db;"/>
      <path d="m12.47,255.05h5.67c0,4.18,0,8.41,0,12.64,0,2.5-.13,5,.03,7.49.27,4.46-.7,7.74-7.23,6.95,1.23,5.83,2.56,11.02,3.39,16.29,1.13,7.19,2.27,14.39-1.81,21.29-.88,1.48-.56,4.08,0,5.93,1.03,3.44.47,5.89-2.29,8.38-1.93,1.75-3.04,4.41-4.49,6.64,3.42,6.25,2.56,12.71-2.42,18.41-.34-.69-.68-1.38-1.02-2.07-.1-3.65-.2-7.29-.31-10.94,0-4.66,0-9.32,0-13.98.12-5.31.24-10.62.36-15.92.63-5.94.93-11.93,1.96-17.8,2.54-14.46,5.42-28.87,8.16-43.3Z" style="fill: #020203;"/>
      <path d="m1.99,332.07c0,4.66,0,9.32,0,13.98-2.66-3-2.66-10.97,0-13.98Z" style="fill: #d6d8db;"/>
      <path d="m2.3,356.99c.34.69.68,1.38,1.02,2.07,0,.67,0,1.33,0,2-.11,1.66-.22,3.33-.33,4.99-3.26-2.79-2.06-5.92-.69-9.06Z" style="fill: #d6d8db;"/>
      <path d="m10.02,411.05c.09.65.17,1.3.26,1.95-1.12-.08-2.25-.15-3.37-.23.7-1.97,1.4-3.95,2.1-5.92,0,0-.07.03-.07.03.36,1.39.72,2.78,1.09,4.18Z" style="fill: #bfc0c4;"/>
      <path d="m3.29,370.99c.23,2.02.46,4.04.7,6.06-3.14-1.68-2.08-3.85-.7-6.06Z" style="fill: #d6d8db;"/>
      <path d="m15.37,243.06c.92.62,2.7,1.37,2.63,1.83-.43,2.7-1.18,5.36-2.12,7.93-.13.36-1.85.15-2.84.2.43-2.96.87-5.92,1.3-8.88.34-.36.69-.72,1.03-1.09Z" style="fill: #020203;"/>
      <path d="m15.37,243.06c-.34.36-.69.72-1.03,1.09-2.12-2.58-.65-3.98,1.68-5.08.09.33.18.67.28,1-.31,1-.62,2-.93,3Z" style="fill: #dadce0;"/>
      <path d="m412.13,6.83c-6.32-.98-12.65-1.97-18.97-2.95.36-.52.79-1.54,1.06-1.49,5.79.96,11.57,2.01,17.33,3.13.27.05.4.86.59,1.31Z" style="fill: #caccd0;"/>
      <path d="m438.48,11.63c-.24.07-.37.11-.49.14-.03-.11-.06-.22-.09-.33.16.05.32.11.58.19Z" style="fill: #bbbcc0;"/>
      <path d="m454.18,19.93c-2.15,4.85-3.15,5.21-6.8,1.77-2.01-1.9-3.55-4.3-5.3-6.48,4.03,1.57,8.07,3.14,12.1,4.7Z" style="fill: #020203;"/>
      <path d="m520.14,436.23c-1.62,5.95-10.97,10.15-16.2,7.34-2.16-1.16-4.4-2.17-6.66-3.13-.52-.22-1.59-.16-1.84.19-3.77,5.18-9.4,2.54-14.16,3.38-5.03.89-10.19,2.21-15.19,1.86-8.32-.57-16.53-2.88-24.84-3.37-4.76-.28-9.63,1.69-14.49,2.47-2.04.33-4.25.68-6.22.24-4.87-1.08-6.95.28-7.4,5.46q-.64,7.37-8.01,7.37c-11.16,0-22.33.12-33.49-.06-4.67-.08-6.72,1.64-6.57,6.43.21,6.83-.06,13.67.1,20.49.08,3.49-.94,5.19-4.79,5.18-44.16-.08-88.32-.07-132.48-.01-3.34,0-5.08-1.11-4.79-4.63.07-.83,0-1.67,0-2.5-.01-8.81-.1-8.89-8.97-8.91q-7.02-.01-7.03-7.34c-.01-8.49-.17-8.65-8.73-8.66-6.79,0-6.87,0-7.25-7.09-.27-5.04-3.88-9.67-10.9-8.16-2.34.5-4.92-.08-7.24.47-8.4,2.01-16.95,1.76-25.4,1.32-9.33-.49-18.99,3.56-28.01-1.76-.43-.25-.95-.59-1.38-.54-7.44.98-7.19-3.79-7.15-8.99.14-21.16.08-42.33.04-63.49,0-2.8.02-5.18,3.45-6.28,1.15-.37,2.28-2.46,2.44-3.88.36-3.12.27-6.33.02-9.48-.09-1.17-.96-3.02-1.82-3.25-4.85-1.26-4.06-4.97-4.06-8.4,0-5,.27-10.02-.08-14.99-.33-4.58.6-7.76,5.77-8.38,1.29-.15,2.52-.73,3.78-1.11.1,22.69.2,45.37.3,68.05-.26.98-.53,1.96-.79,2.94-.52.28-1.03.57-1.55.85.55.4,1.11.79,1.66,1.19.24,6.35.48,12.71.72,19.06-.09.87-.18,1.74-.27,2.61-.38.81-.76,1.62-1.14,2.43.74.17,1.49.5,2.22.48,1.64-.03,3.27-.23,5.34-.39-.78,2.25-1.27,3.63-1.75,5.01,0,0-.03-.02-.03-.02-.85-.02-1.7-.05-2.54-.07.35.71.69,1.43,1.04,2.14-.42,1.18-.84,2.36-1.26,3.54-3.88,1.24-4.88,3.18-1.51,6.19.77,2.76,1.54,5.52,2.31,8.29.47,1.77.58,4.84,1.48,5.09,3.4.95,7.11,1.57,10.58,1.19,3.59-.39,5.31-3,3.63-6.82.99-.39,1.98-.79,2.97-1.18.84,1.65,1.67,3.3,2.51,4.95,1.91-1.25,3.81-2.51,5.72-3.76.63.14,1.26.29,1.9.43.49,4.25,4.65,3.17,7.07,4.48.39.21,2.58-2.91,3.94-4.49,5.32.24,10.65.48,15.97.72,4.42,1.98,8.82,3.99,13.28,5.88.46.19,1.43-.13,1.79-.54,2.49-2.8,4.83-2.13,7.89-.6,3.37,1.68,5.68-.65,5.07-4.5,1.64-.48,3.27-.95,4.91-1.43.35,2.04.38,5.7,1.11,5.84,3.23.64,6.73.63,9.96,0,.69-.13.7-3.8,1.02-5.84,2,.5,3.99,1,5.99,1.49-1.12,3.31-.69,5.3,3.89,4.29-.32-1.59-.6-2.94-.88-4.29,1.04-.31,2.08-.63,3.13-.94.08.25.16.5.23.75.15-.26.3-.52.46-.78,1.74-.72,3.47-1.43,5.21-2.15,1.38-2.03,2.77-4.06,4.15-6.09,2.18-.2,4.37-.4,6.55-.6l.02.16c.13,1.05.07,2.17.43,3.13,1.45,3.88.03,5.93-4.15,5.8-.89-.03-1.78,0-2.78,0,.04,5.78,3.98,6.93,7.98,6.95,4.62.02,3.96-4.3,4.77-7.27,1.65-.09,3.31-.18,4.96-.27.68-.63,1.36-1.25,2.04-1.88.14-.32.37-.52.71-.6,4.75,1.67,9.5,3.36,14.29,4.91.07.02.66-1.53,1-2.34,1,.06,2,.12,2.99.18,1.33,2.8,2.66,2.8,4.01,0,1.33,0,2.66,0,3.99,0,.79,1.22,1.58,2.44,2.37,3.66.88-1.22,1.76-2.44,2.64-3.66.67.31,1.33.63,2,.94,1.27,1,2.54,2,3.73,2.95,1.42-1.77,2.34-2.91,3.26-4.05,1.33.08,2.67.15,4,.23.22,6.02,1.47,6.82,7.17,4.7,1.2-.45,2.5-.9,3.76-.89,2.92.01,4.24-1.3,4.12-4.16,2.33.06,4.66.12,6.98.18,2.16,1.8,4.32,3.61,6.48,5.41l1.72-1.77c-3.3-3.69-6.6-7.37-9.91-11.06.66-1.22,1.31-2.43,1.97-3.65,4.43.46,3.75-2.78,4.39-5.68-1.77.31-3.03.54-4.29.76-.81-.99-1.62-1.99-2.44-2.98.23-1.87,1.34-4.68.53-5.43-3.06-2.86-11.39-.03-13.49,4.17-1.66,0-3.33,0-4.99.01-.66-1.11-1.16-2.37-2.01-3.31-3.9-4.35-8.02-8.5-11.77-12.97-1.09-1.3-1.2-3.41-1.76-5.15,1.47-.2,2.98-.7,4.41-.56,3.91.39,5.92-.63,4.59-4.99-.78-2.56.17-3.83,2.95-3.59q6.69.58,5.46-5.89c-.19-.97-.87-1.99-.7-2.86.23-1.15.85-2.47,1.75-3.12.43-.31,2.48.54,2.73,1.24,1.76,4.99,5.28,5.06,9.19,3.31,1.6-.72,2.75-2.42,4.11-3.67-1.5-1.1-2.89-2.89-4.52-3.16-5.08-.83-6.43-2.43-5.57-7.51.49-2.86.7-5.77,1.04-8.66.11-.66.21-1.33.32-1.99.26-.3.53-.61.79-.91,0,0,.04-.03.04-.03,1.45-.65,3.62-.9,4.23-2.01,2.5-4.49,4.43-9.3,6.77-13.89.71-1.4,1.9-3.2,3.17-3.48,1.36-.3,3.28.68,4.56,1.64,1.25.94,1.8,2.74,2.97,3.84,6.08,5.68,12.2,11.21,14.83,19.59.45,1.42,2.92,2.2,4.46,3.28.34.67.67,1.33,1.01,2-.84,6.42,2.83,12.9,7.95,14.01.41.97.82,1.94,1.22,2.91-.34,1.01-1.09,2.08-.96,3.02.53,3.73,1.33,7.41,2.2,12.01h6.72c.63.98,1.26,1.96,1.88,2.94.35,4.85.49,9.74,1.14,14.55.24,1.74,1.7,3.32,2.61,4.97l-2.46,2.55c-1.78-3.48-4-6.02-8.39-3.92-3.16-.31-5.57-.07-6.66,3.91-.81,2.95-3.12,5.5-5.2,8.95-1.92-3.32-3.49-6.05-5.09-8.77-1.3-2.21-2.42-5.32-5.67-3.9-1.57.69-2.37,3.14-3.52,4.79-2.42-1.55-5.82-3.31-6.29.87-.45,3.97,1.4,8.19,2.25,12.3.3.45.61.89.91,1.34-.89.38-2.12.52-2.59,1.19-.85,1.2-1.24,2.73-1.82,4.11.98.38,2.32,1.34,2.85,1.01,1.17-.72,2.07-2.02,2.79-3.26.36-.61.07-1.59.08-2.4,1,0,2,0,3,0,.57,3.71,1.48,7.9,6,7.54,3.15-.25,7.29-1.57,7-6.53.99-.42,1.97-.84,2.96-1.26,2.05,1.9,4.04,3.87,6.17,5.68,2.59,2.18,4.81,2.21,5.96-1.5.39-1.25.62-2.55.92-3.82.66-.09,1.32-.19,1.98-.28,2.03,5.95,3.38,6.4,7.27,2.45,7.31,5.35,10.02,5.04,10.74-1.24,1-.32,2-.64,3-.97,2.33,1.42,4.51,3.51,7.02,4.07,2.81.62,5.93-.34,8.91-.28,3.21.07,5.03-.5,2.98-4.09l-.03.03c3.21.59,6.4,1.4,9.64,1.66,1.44.12,2.98-.88,4.47-1.37.67,0,1.33,0,2,.01.21.79.42,1.58.99,3.72.58-2.13.79-2.92,1.01-3.71.68-.05,1.36-.1,2.04-.16,3.76,2.18,3.72-1.56,5.01-3.22,1.31.73,2.62,1.46,3.93,2.19,3.37.66,6.75,1.91,10.12,1.86,8.81-.13,13.21-4.52,12.77-11.93.13-1,.25-2,.38-3,.92.34,1.83.67,2.75,1.01.05,1.66.09,3.31.14,4.97,2.42,5.69,6.39,8.77,12.91,8.11,2.95-.3,5.96,0,8.95.03-.5,4.4,2.62.42,3.88,1.66,4.5,4.41,8.31.81,12.12-1.61,1,0,2,0,3-.01Z" style="fill: #020101;"/>
      <path d="m238.14,237.83c1.38-.92,2.77-2.64,4.15-2.63,7.63.06,15.25.73,22.87.82,12.83.16,25.66.22,38.48-.06,4.02-.09,8.02-1.42,12.03-2.12,1.08-.19,2.72-.66,3.22-.15,2.89,2.93,6.23,1.52,9.41,1.3,9.93-.69,19.75-.62,29.73.59,10.51,1.27,21.28.43,31.94.48,7.15.04,7.15.01,7.16,7.21.01,8.72.07,8.81,9.09,8.78,3.57-.01,7.14-.55,7.31,4.92.03,1.07,2.74,2.57,4.43,2.96,2.21.52,4.76-.32,6.93.29,1.62.45,2.88,2.24,4.25,3.49,1.54,1.41,2.97,4.08,4.51,4.12,5.77.16,11.58-.43,17.35-1,1.14-.11,2.48-1.14,3.18-2.13,3.76-5.35,8.89-10.39,10.51-16.37,1.39-5.09,4.8-5.91,7.4-8.74,6.15-6.7,12.88-5.4,20.08-5.09,3.4.15,6.82-.35,10.23-.57,1.27-.08,2.57-.48,3.8-.3,5.2.73,10.44,1.4,15.54,2.61,1.36.32,2.79,2.33,3.28,3.86,1.15,3.56,2.21,7.26,2.44,10.96.28,4.39-.48,8.84-.5,13.26,0,1.41.45,3.45,1.43,4.13,3.21,2.22,2.97,4.93,3.32,8.46.55,5.57,3.07,11.05,5.33,16.31,1.41,3.29,4.02,6.05,5.81,9.21.62,1.1.82,2.79.5,4.02-2.12,8-.49,14.95,4.18,21.85,2.21,3.27,3.31,8.03,3.04,11.99-.22,3.32.53,4.87,2.96,6.42,6.83,4.38,9.05,10.27,6.91,18-.18.63-.09,1.35-.31,1.96-2.5,7.12-3.33,13.76,3.38,19.5,1.64,1.4,1.79,4.54,2.63,6.88-1.49-1.65-2.92-3.35-4.49-4.92-1.43-1.43-3.02-2.72-4.54-4.06h.01c-.26-.32-.53-.66-.79-1-.14-.32-.29-.63-.43-.95-1.98-7.01-3.97-14.02-5.95-21.03-2.09-8.03-4.14-16.07-6.32-24.07-.57-2.09-1.56-4.06-2.36-6.09-1.79-8.49-3.16-17.1-5.48-25.45-3.94-14.19-8.33-28.26-12.83-42.28-2.56-7.98-5.1-16.2-13.84-19.99-.25-.16-.51-.23-.81-.23-.72-.35-1.43-.69-2.15-1.04l.07.03c-.87-.65-1.67-1.73-2.62-1.89-16.19-2.81-26.27-2.54-36.18,12.09-8.81,13.02-15.95,27.17-23.78,40.85-6.49,11.34-12.89,22.72-19.34,34.09-.34.67-.69,1.33-1.03,2-.4.65-.8,1.29-1.2,1.94-5.57,1.28-6.23,5.39-5.86,10.11,0,0,.05-.03.05-.03-.49.07-1.09-.02-1.45.23-3.41,2.45-5.14,2.35-6.19-2.48-.56-2.55-3.63-4.55-5.57-6.8-.34-.66-.69-1.33-1.03-1.99,2.42-4.13.23-5.46-3.53-5.83-1.16-2.12-2.25-4.29-3.5-6.35-4.23-7-8.53-13.98-12.8-20.96-4.33-7.99-8.66-15.97-12.99-23.96-1.4-2.32-2.8-4.65-4.2-6.97-2.17-4.01-4.13-8.15-6.56-11.99-3.9-6.17-8.8-11.93-15.95-13.78-13.77-3.56-26.37-1.42-35.6,10.83-.24.36-.49.72-.73,1.07-.33.31-.66.61-.99.92-.34.66-.69,1.33-1.03,1.99l-.23,1.01c-.24.35-.49.71-.73,1.06-.43,1.32-.85,2.63-1.28,3.95-.26.97-.53,1.94-.79,2.91,0,0-.03.04-.03.04-.31,1.02-.62,2.04-.93,3.06-.41,1.33-.82,2.66-1.22,3.99-.31.62-.61,1.24-.92,1.86-4.2.88-3.56,3.59-1.96,6.57-5.39.88-2.89-3.98-4.72-5.43,0-.34,0-.68-.01-1.02.34-.99.68-1.99,1.02-2.98-.02-.34-.04-.69-.06-1.03.26-.38.53-.77.79-1.15.09-.61.18-1.22.26-1.83.93,0,1.86,0,2.79,0,.32.52.65,1.04.97,1.56.21-.19.42-.38.63-.57-.53-.33-1.06-.66-1.6-.99.52-2.71,1.02-5.43,1.56-8.13.71-3.59-1.85-5.79-5.59-4.77-4.66-1.98-9.32-3.96-13.97-5.93-12.71-5.79-26.54-6.78-40-9.39Z" style="fill: #020101;"/>
      <path d="m120.61,305.06c-.79-.78-2.41-1.82-2.26-2.3,1.98-6.23.36-11.96-1.98-17.67-.29-.7-.04-1.62-.04-2.44.61-.14,1.22-.29,1.83-.43,1.32-.02,2.65-.04,3.97-.05,3.34.02,6.68.04,10.03.06l3.99.83c-.72.33-1.49.59-2.15,1.01-.96.62-2.65,1.47-2.58,2.03.17,1.3.9,3.07,1.95,3.62,5.57,2.93,11.33-.45,11.79-6.69,1.96-.12,3.91-.32,5.87-.36,8.37-.17,16.74-.3,25.11-.45,10.67-.01,21.35-.02,32.02-.03,11.33.56,22.67,1.13,34,1.69.66,0,1.32,0,1.98,0,3.33,1.33,6.67,2.66,10,4,3,1.39,6.01,2.78,9.01,4.17.64.35,1.28.7,1.92,1.05.67.66,1.34,1.33,2.01,1.99.77.83,1.54,1.66,2.31,2.48l.34.27c2.54,3.9,5.01,7.86,7.71,11.65.41.58,1.89.4,2.88.57,1.75-3.01,3.5-6.01,5.68-9.77.51,1.63,1.44,3.22,1.4,4.78-.08,2.71-.76,5.41-1.19,8.12-.09.96-.18,1.91-.27,2.87-8.32,1.73-10.13,7.51-4.71,15.03-.98,3.32-1.96,6.65-2.93,9.97-.71,1.08-1.42,2.15-2.13,3.23-3.14,2.96-5.87,6.61-9.5,8.73-6.2,3.62-12.96,6.27-19.48,9.33-5.01.46-10.02.92-15.02,1.38-10.42-.15-20.83-.39-31.25-.42-5.25-.01-10.51.36-15.76.55-3.6-.03-7.2-.06-10.79-.08.07-.32.02-.61-.15-.89-.01-6.04.07-12.08-.1-18.11-.05-1.64-.88-3.25-1.35-4.88.11-7.95.21-15.89.32-23.84,1.32.75,3.81,1.58,3.76,2.23-.45,6.34,1.11,10.78,8.4,11.44,1.77.16,3.45,1.32,5.18,2.02.58-1.77,1.65-3.54,1.67-5.32.13-10.22-.64-9.4,9.57-9.38.33,0,.67-.01,1,0,3.73.15,5.55-1.59,5.52-5.38-.05-6.83-.11-13.67.03-20.5.06-2.91-.8-4.22-3.95-4.17-9.5.15-19,.11-28.5.03-3.39-.03-3.68,1.32-3.09,4.38.63,3.24.22,6.68.26,10.04-.96-.24-1.91-.68-2.87-.68-15.24-.07-30.48,0-45.71-.18-3.58-.04-3.47,2.17-3.72,4.47Z" style="fill: #020101;"/>
      <path d="m173.05,316.06c-.11,7.95-.21,15.89-.32,23.84-.16,7.7-.33,15.4-.49,23.1.7.26,1.4.52,2.1.78,3.6.03,7.2.06,10.79.08,2.16.28,4.33.55,6.5.83-2.58,1.19-5.16,2.39-7.32,3.39.81,1.13,2.52,2.49,2.43,3.71-.08,1.13-1.95,2.83-3.26,3.08-12.42,2.35-19.79,10.19-23.52,21.71-1.06,3.26-2.52,5.35-5.59,6.81-1.55.74-2.57,2.57-4.13,4.24-3.53.37-7.76.82-11.99,1.26l-5.19.02c-3.28,0-6.55,0-9.83,0-.64-.17-1.28-.34-1.92-.5-.12-.75-.24-1.5-.36-2.25-.24-6.35-.48-12.71-.72-19.06l.67-2.03c0-.98,0-1.96.01-2.94-.1-22.69-.2-45.37-.3-68.06,0-3,0-6,0-9,.25-2.3.14-4.52,3.72-4.47,15.24.19,30.47.11,45.71.18.96,0,1.91.44,2.87.68.05,1.87.1,3.73.15,5.6,0,1.34,0,2.69,0,4.03,0,1.66,0,3.32,0,4.98Z" style="fill: #f8e48c;"/>
      <path d="m238.14,237.83c13.45,2.61,27.29,3.6,40,9.39.3,1.2.6,2.41,1.01,4.03-2.29.28-4.63.25-6.75.92-1.57.49-2.84,1.9-4.25,2.89-.33,0-.66,0-1,0-4.33,1.33-8.67,2.67-13,4-19.49,0-38.98-.07-58.46.04-6.12.03-12.24.77-18.36.74-10.12-.05-20.27-.95-30.36-.48-4.21.2-8.11.81-11.91-1.33.04-.3.08-.59.12-.89.59-1.03,1.19-2.06,1.78-3.09,4.09-5.25,8.19-10.51,12.28-15.76,1.97-.19,3.94-.37,5.91-.56,17.23.09,34.46.23,51.68.26,10.44.02,20.87-.11,31.31-.17Z" style="fill: #edefef;"/>
      <path d="m126.26,268.1c.3-.33.6-.66.9-1,.3.01.6-.01.89-.08.72-.33,1.43-.66,2.15-.98,4.97-.66,9.92-1.74,14.91-1.9,16.59-.54,33.18-.91,49.78-1.03,22.62-.17,45.26-.47,67.85.26,5.57.18,8.61-1.35,11.4-5.31,2.33,1,4.67,2,7,3.01,3.33,1.66,6.67,3.33,10,4.99-4.67,3.88-8.04,3.78-12.54.07-1.27-1.05-3.16-1.38-4.81-1.92-.27-.09-.73.44-1.16.71.78,1.15,1.46,2.14,2.82,4.13-4.52,0-8.1,0-11.68,0-13.74,0-27.49-.25-41.23.08-9.92.24-19.82,1.48-29.75,1.83-5.93.21-11.9-.6-17.85-.62-5.79-.02-11.59.53-17.38.53-3.79,0-7.59-.8-11.38-.75-5.35.07-10.7.6-16.05.93-1.28-.66-2.57-1.31-3.85-1.97-.06-.33-.07-.66-.04-.99Z" style="fill: #e0e2e6;"/>
      <path d="m544.14,438.06c-1.67,0-3.33,0-5,0-4.61,2.89-8.33,2.21-10-1.82,1.21-1.55,2.42-3.11,4.03-5.16-5.1,0-9.23.04-13.37-.01-4.71-.06-6.49-1.99-6.55-6.97,3.16-3.43,7.32-3.45,11.42-2.99,3.95.44,6.47-.96,8.04-4.98-6,0-11.76,0-17.53,0-.7.28-1.4.57-2.1.85,0,0-.21.02-.21.02-.22-2.67-.44-5.34-.66-8.01,11.97.04,23.93.08,35.9.13,3.74.1,7.5.04,11.22.36,3.53.31,4.22-1.43,3.74-4.36l.23-.18c.78,1.06,1.68,2.06,2.33,3.2,3.04,5.32,1.74,10.24-1.53,14.94-1.19-3.41-3.3-5.77-7.11-6.11-3.9-.34-7.81-.74-11.72-.89-4.75-.17-8.63,2.13-9.84,6.48-1.16,4.17-1.38,9.01,3.68,11.67,2.39.92,4.77,1.85,7.16,2.77-.7.35-1.41.7-2.11,1.05Z" style="fill: #040405;"/>
      <path d="m274.14,258.06c-2.79,3.96-5.83,5.49-11.4,5.31-22.6-.73-45.23-.43-67.85-.26-16.6.12-33.19.5-49.78,1.03-4.98.16-9.94,1.24-14.91,1.9-.05-.39-.1-.78-.14-1.17,1.66-2.28,3.33-4.56,4.99-6.84,3.8,2.14,7.7,1.52,11.91,1.33,10.09-.47,20.23.43,30.36.48,6.12.03,12.24-.71,18.36-.74,19.49-.1,38.97-.04,58.46-.04,2.56.33,5.11.8,7.68.96,3.41.22,5.35-1.37,5.32-4.96.33,0,.66,0,1,0,2.85-.69,6.1-2.21,6,3Z" style="fill: #e6e7eb;"/>
      <path d="m544.14,438.06c.7-.35,1.41-.7,2.11-1.05,4.32-.65,8.63-1.29,12.95-1.94.3-.24.61-.49.91-.73.67-.44,1.34-.88,2.01-1.32,1.29.89,2.59,1.79,3.88,2.68.1-.38.2-.76.29-1.14l-2.18-5.51c-.01-1.99-.02-3.98-.04-5.97,3.27-4.7,4.58-9.61,1.53-14.94-.65-1.14-1.55-2.14-2.33-3.2.95-3.29,1.91-6.59,2.86-9.88.33,2.67.35,5.42,1.08,7.97.68,2.38,1.56,5.19,3.32,6.69,5.9,5.03,6.81,11.11,5.21,18.14-.69,3.05-1.53,6.16-1.51,9.24.02,4.48-2.35,5.75-6.16,5.97-4.17.24-8.32.66-12.49.86-.91.04-1.93-.36-2.76-.82-2.93-1.62-5.8-3.36-8.69-5.05Z" style="fill: #020101;"/>
      <path d="m513.24,424.1c.06,4.98,1.84,6.91,6.55,6.97,4.14.05,8.28.01,13.37.01-1.6,2.05-2.81,3.61-4.03,5.16-.67,0-1.33,0-2,0-2.33,0-4.66,0-7,0-1,0-2,0-3,.01-2.96-2.06-5.91-4.13-8.87-6.19.91-2.42,1.81-4.84,2.73-7.27.81.48,1.53.9,2.24,1.32Z" style="fill: #d6d8db;"/>
      <path d="m566.14,395.06c-.95,3.29-1.91,6.59-2.86,9.88,0,0-.22.18-.22.18-1.98-7.02-3.96-14.03-5.94-21.05,1.52,1.35,3.1,2.63,4.54,4.06,1.57,1.57,3,3.28,4.49,4.92,0,.67,0,1.33,0,2Z" style="fill: #040405;"/>
      <path d="m527.14,436.24c.67,0,1.33,0,2,0,1.68,4.03,5.39,4.71,10,1.82-.05,1.31.11,2.67-.19,3.92-.95,3.92-4.51,5.08-7.17,2.05-1.96-2.23-3.12-5.17-4.64-7.79Z" style="fill: #020101;"/>
      <path d="m126.26,268.1c-.03.33-.02.66.04.99-.37.37-.73.74-1.1,1.11-.7.95-1.4,1.89-2.1,2.84-1.56,2.13-3.12,4.26-4.67,6.39-.3-.03-.48.1-.56.39-.62.75-1.24,1.5-1.87,2.24-.54-.33-1.51-.63-1.55-1.01-.46-4.9,6.66-12.64,11.8-12.95Z" style="fill: #020101;"/>
      <path d="m155.15,237.73c-1.97.19-3.94.37-5.91.56.31-1.07.61-3.04.94-3.05,1.98-.04,4.87-1.32,4.97,2.49Z" style="fill: #020101;"/>
      <path d="m92.19,131.45v4.8c-.72-.02-2.06.05-2.08-.08-.22-1.54-.26-3.1-.34-4.65.8-.02,1.61-.04,2.41-.07Z" style="fill: #020203;"/>
      <path d="m27.94,254.26c.45.51.91.81.93,1.14.02.37-.35.76-.55,1.15-.32-.27-.84-.49-.91-.81-.08-.35.26-.79.53-1.48Z" style="fill: #020203;"/>
      <path d="m116,282.06c.62-.75,1.24-1.5,1.87-2.24.1.8.19,1.6.29,2.4-.61.14-1.22.29-1.83.43.04-.28-.07-.47-.33-.59Z" style="fill: #7f8185;"/>
      <path d="m136.96,254.06c-.59,1.03-1.19,2.06-1.78,3.09.59-1.03,1.19-2.06,1.78-3.09Z" style="fill: #020203;"/>
      <path d="m130.06,264.87c.05.39.09.78.14,1.17-.72.33-1.43.66-2.15.98.09-.33.05-.65-.12-.95.71-.4,1.42-.8,2.13-1.2Z" style="fill: #d6d8db;"/>
      <path d="m127.93,266.08c.17.3.21.62.12.95-.29.07-.59.09-.89.08.26-.34.52-.69.78-1.03Z" style="fill: #020101;"/>
      <path d="m628.45,509.46c-.17-.2-.34-.39-.51-.59.22.13.44.27.66.41,0,0-.15.18-.15.18Z" style="fill: #020203;"/>
      <path d="m10.02,411.05c-.36-1.39-.73-2.78-1.09-4.18.36,1.39.73,2.78,1.09,4.18Z" style="fill: #caccd0;"/>
      <path d="m133.06,408.9c1.73,0,3.46-.01,5.19-.02,11.81.1,23.63.31,35.44.28,17.82-.04,35.63-.25,53.45-.39,1,.02,2,.03,3.01.05,7.36-.34,14.78-.2,22.04-1.19,5.46-.75,10.72-2.97,16.08-4.53,4.21-1.6,8.38-3.3,12.64-4.77,13.15-4.57,23.06-13.44,31.13-24.3,4.34-5.84,7.39-12.64,11.02-19-.34,2.89-.55,5.8-1.04,8.66-.86,5.08.49,6.67,5.57,7.51,1.64.27,3.02,2.06,4.52,3.16-1.36,1.25-2.51,2.95-4.11,3.67-3.91,1.75-7.43,1.68-9.19-3.31-.25-.7-2.3-1.55-2.73-1.24-.89.65-1.52,1.97-1.75,3.12-.17.87.51,1.89.7,2.86q1.24,6.45-5.46,5.89c-2.78-.24-3.73,1.03-2.95,3.59,1.33,4.36-.68,5.38-4.59,4.99-1.44-.14-2.94.35-4.41.56.56,1.74.67,3.86,1.76,5.15,3.75,4.47,7.87,8.62,11.77,12.97.85.95,1.35,2.2,2.01,3.31-3.55.16-5.17,2.26-5.89,6.16h19.77c.06.57.13,1.14.19,1.71-6.44,3.48-13.88,1.64-21.48,2.59.49,3.38.94,6.54,1.4,9.7-.92,1.14-1.84,2.28-3.26,4.05-1.2-.94-2.46-1.95-3.73-2.95,1.18-1.89,2.36-3.77,3.58-5.74-5.51-1.37-11.15,1.06-17.19-1.88,5.97-1.56,12.51,1.84,15.78-5.29-5.28-.24-10.05-.46-14.82-.68.03-.52.07-1.04.1-1.56,3.09,0,6.35.6,9.23-.18,2.66-.71,4.93-2.9,7.37-4.44-.27-.38-.55-.76-.82-1.14h-22.76c.52,6.78,1.03,13.28,1.53,19.77-.35.82-.93,2.37-1,2.34-4.79-1.56-9.54-3.24-14.29-4.91,3.75-5.62,7.5-11.24,11.4-17.08-11.03-2.52-10.66,9.01-16.31,12.03-5.39-4.02-5.33-14.84-16.29-11.98,1.23,1.76,2.47,3.43,3.61,5.17,1.26,1.92,2.42,3.89,3.63,5.84-2.18.2-4.37.4-6.55.6-.5-3.86,1.03-8.76-4.99-9.81-5.73-3.77-11.88-2.57-17.91-1.23-1.72.38-3.54,1.75-4.64,3.19-4.28,5.59-2.12,11.59,5.36,15.56-.32,2.04-.33,5.71-1.02,5.84-3.24.63-6.73.64-9.96,0-.73-.15-.76-3.8-1.11-5.84.89-1.44,1.78-2.88,2.93-4.74-5.21,0-9.79.53-14.15-.23-2.1-.37-3.78-3.18-5.65-4.89,1.79-1.29,3.41-3.07,5.4-3.72,1.95-.64,4.3-.33,6.44-.1,4.38.47,6.1-2.02,7.31-5.98-5.37,0-10.35-.19-15.31.06-4.56.23-7.92,2.79-9.47,6.99-1.58,4.26.61,7.5,3.62,10.54,4.05,4.08,9.14,3.07,13.97,3.5.61,3.84-1.7,6.18-5.07,4.5-3.06-1.52-5.4-2.2-7.89.6-.36.41-1.34.73-1.79.54-4.46-1.89-8.86-3.9-13.28-5.88.69-.39,1.34-1.01,2.07-1.13,4.46-.71,5.49-3.54,5.06-7.57-.47-4.44-4.21-3.47-6.77-4.06-2.22-.51-4.64-.06-6.97-.15-2.06-.08-4.12-.3-7.54-.57,7.23-3.84,16.33,2.98,20.19-7.27-6.58,0-12.71-.28-18.8.11-3.39.22-6.49,1.79-6.2,6.17.29,4.27,3.34,5.39,6.85,5.54,4.32.18,8.65.04,12.98.04.05.57.1,1.13.15,1.7-5.82,4.04-14.83-2.54-20.04,5.3,1.28.49,2.17.82,3.05,1.16-1.36,1.58-3.55,4.7-3.94,4.49-2.42-1.32-6.58-.23-7.07-4.48,1.25-.23,2.5-.46,3.75-.69v-19.49c-2,.12-3.7.23-5.65.35,0,6.8,0,13.1,0,19.4-1.91,1.25-3.81,2.51-5.72,3.76-.84-1.65-1.67-3.3-2.51-4.95,3.65-2.78,6.15-6.03,4.94-11.04-1.17-4.88-4.97-6.49-9.17-7.01-4.09-.5-8.28-.23-12.43-.3.48-1.38.97-2.77,1.75-5.01-2.07.16-3.71.36-5.34.39-.74.01-1.48-.31-2.22-.48.38-.81.76-1.62,1.14-2.43.29.02.5-.09.63-.35.64.17,1.28.34,1.92.5,3.28,0,6.56,0,9.83,0Z" style="fill: #040405;"/>
      <path d="m323.05,355.03c-3.63,6.36-6.68,13.16-11.02,19-8.07,10.86-17.99,19.73-31.13,24.3-4.25,1.48-8.43,3.18-12.64,4.77-2.79.31-5.57.67-8.36.9-3.02.25-4.52-.64-3.1-4.05.74-1.77.63-3.89,1.42-5.62.86-1.9,2.03-4.72,3.55-5.09,6.9-1.65,9.56-9.93,17.01-10.45.5-.03.92-.91,1.41-1.36,1.7-1.56,3.42-3.11,5.1-4.64-4.04-2.22-3.94-4.98.21-8.4,4.34-3.58,8.51-7.37,12.81-11,5.1-4.31,10.29-8.5,15.34-12.85.77-.66,1.19-1.9,1.45-2.95,1.2-4.81,5.86-8.18,11.35-8.04.55,2.16,1.11,4.34,1.67,6.51-1.31,5.34-2.62,10.68-3.93,16.01,0,0-.04.03-.04.03-.26.3-.53.61-.79.92-.11.66-.21,1.33-.32,1.99Z" style="fill: #c9972c;"/>
      <path d="m324.2,352.08c1.31-5.34,2.62-10.68,3.93-16.01,2.86-9.66,5.71-19.32,8.86-29.95,1.88,3.16,3.02,5.07,4.16,6.97l13.14,25.92c3.63,7.34,7.26,14.69,10.89,22.03-1.54-1.08-4.02-1.86-4.46-3.28-2.63-8.38-8.75-13.92-14.83-19.59-1.17-1.09-1.73-2.9-2.97-3.84-1.27-.96-3.2-1.94-4.56-1.64-1.27.28-2.46,2.09-3.17,3.48-2.34,4.59-4.27,9.39-6.77,13.89-.62,1.11-2.78,1.36-4.23,2.01Z" style="fill: #040405;"/>
      <path d="m388.96,417.45c-.91-1.65-2.37-3.23-2.61-4.97-.66-4.81-.8-9.69-1.14-14.55,3.47,2.95,6.72,6.22,10.46,8.79,6.84,4.71,14.88,2.96,22.49,3.49.79,2.21,1.58,4.43,2.36,6.64-.79,1.51-1.57,3.03-2.81,5.42h20.41l.19,1.98c-6.23,3.46-13.62.2-20.11,1.96v9.75h5.87c2.05,3.59.23,4.16-2.98,4.09-2.98-.06-6.1.9-8.91.28-2.52-.56-4.7-2.65-7.02-4.07,3.08-1.88,8.17-1.41,8.1-6.96,2.2-6.17.59-11.19-5.19-12.04-6.22-.91-12.72.04-19.1.17Z" style="fill: #040405;"/>
      <path d="m351.97,421.05c1.15-1.65,1.95-4.11,3.52-4.79,3.24-1.42,4.37,1.69,5.67,3.9,1.6,2.72,3.17,5.46,5.09,8.77,2.08-3.45,4.39-5.99,5.2-8.95,1.1-3.98,3.51-4.22,6.66-3.91,2.01,6.65,4.02,13.3,6.03,19.95-.66.09-1.32.19-1.98.28-2.49.06-4.2-.46-4.44-3.59-.17-2.25-1.37-4.42-2.11-6.62-.44-.15-.87-.3-1.31-.45-1.73,3.44-3.46,6.87-5.19,10.31-.99.42-1.97.84-2.96,1.26-1.94-2.26-3.83-4.56-5.83-6.76-.96-1.05-2.13-1.9-3.21-2.84-.67,1.1-1.47,2.15-1.99,3.32-.76,1.71-1.32,3.51-1.97,5.28-1,0-2,0-3,0-.44-.22-.87-.44-1.31-.65-.3-.45-.61-.89-.91-1.34,1.35-4.39,2.69-8.78,4.04-13.17Z" style="fill: #caccd0;"/>
      <path d="m163.15,436.24c-.88-.34-1.77-.67-3.05-1.16,5.21-7.85,14.22-1.26,20.04-5.3-.05-.57-.1-1.13-.15-1.7-4.33,0-8.66.14-12.98-.04-3.51-.15-6.57-1.27-6.85-5.54-.29-4.38,2.8-5.95,6.2-6.17,6.09-.39,12.22-.11,18.8-.11-3.86,10.25-12.96,3.44-20.19,7.27,3.42.26,5.48.49,7.54.57,2.33.09,4.75-.36,6.97.15,2.56.59,6.3-.37,6.77,4.06.43,4.03-.6,6.85-5.06,7.57-.73.12-1.38.74-2.07,1.13-5.32-.24-10.65-.48-15.97-.72Z" style="fill: #7f8185;"/>
      <path d="m424.06,435.96h-5.87v-9.75c6.48-1.76,13.87,1.5,20.11-1.96l-.19-1.98h-20.41c1.24-2.39,2.02-3.91,2.81-5.42,5.86-.22,11.71-.43,17.57-.65,3.24,1.03,7.11,1.88,6.69,6.21-.26,2.63-2.14,5.1-3.34,7.76.67,1.44,1.71,3.71,2.75,5.98-.68.05-1.36.1-2.04.16h-2c-.67-.02-1.33-.02-2-.03-3.17-5.83-8.26-6.04-14.11-4.68v4.39l.03-.03Z" style="fill: #d6d8db;"/>
      <path d="m307.14,436.08c-.46-3.16-.91-6.32-1.4-9.7,7.6-.95,15.04.89,21.48-2.59-.06-.57-.13-1.14-.19-1.71h-19.77c.72-3.9,2.34-6,5.89-6.16,1.66,0,3.33,0,4.99-.01,4.32.42,8.64.84,12.96,1.27.81.99,1.62,1.99,2.44,2.98-.03,1.64-.07,3.28-.1,4.92-.66,1.22-1.31,2.43-1.97,3.65-.79.34-1.58.68-1.69.73,1.25,2.45,2.32,4.57,3.39,6.69-2.33-.06-4.66-.12-6.98-.18-2.5-7.77-8.79-3.86-13.25-4.87-.71,2.07-1.26,3.65-1.8,5.22-1.33-.08-2.67-.15-4-.23Z" style="fill: #bbbcc0;"/>
      <path d="m282.15,436.05c-.5-6.49-1-12.99-1.53-19.77h22.76c.27.38.55.76.82,1.14-2.44,1.54-4.71,3.73-7.37,4.44-2.89.77-6.14.18-9.23.18-.03.52-.07,1.04-.1,1.56,4.77.22,9.54.44,14.82.68-3.27,7.13-9.81,3.72-15.78,5.29,6.04,2.94,11.69.51,17.19,1.88-1.22,1.96-2.4,3.85-3.58,5.74-.67-.31-1.33-.63-2-.94-1.67,0-3.34,0-5.01,0-1.33,0-2.66,0-3.99,0-1.34,0-2.67,0-4.01,0-1-.06-2-.12-2.99-.18Z" style="fill: #aeb0b4;"/>
      <path d="m125.35,416.28c4.15.07,8.34-.21,12.43.3,4.21.52,8,2.13,9.17,7.01,1.21,5.01-1.29,8.26-4.94,11.04-.99.39-1.98.78-2.97,1.18-5.23.18-10.46.36-15.7.54-.77-2.76-1.54-5.52-2.31-8.29-.28-4.96,2.74-4.11,5.73-3.57.31,2.03.57,3.76.85,5.63,3.15,0,6.14.57,8.74-.19,1.87-.55,3.2-2.89,4.77-4.43-1.53-1.19-2.97-3.22-4.61-3.4-4.61-.49-9.31-.21-13.97-.23.42-1.18.84-2.36,1.26-3.54.5-.69,1-1.38,1.5-2.07l.03.02Z" style="fill: #7f8185;"/>
      <path d="m508.28,430.05c2.96,2.06,5.91,4.13,8.87,6.19-3.81,2.42-7.62,6.02-12.12,1.61-1.27-1.24-4.38,2.74-3.88-1.66,1.21-1.55,2.41-3.09,4.01-5.14-3.27,0-5.71.02-8.15,0-4.13-.03-8.53.94-11.68-2.96-.08-5.08,1.62-6.95,6.42-7.03,4.98-.09,10.49,1.29,13.33-4.78,1.16-1,2.32-2.01,3.48-3.01.84,1.52,1.68,3.04,2.52,4.55-3.81,3.42-5.45,7.34-2.79,12.23Z" style="fill: #040405;"/>
      <path d="m224.15,435.77c-7.48-3.97-9.64-9.97-5.36-15.56,1.1-1.43,2.92-2.8,4.64-3.19,6.03-1.35,12.18-2.55,17.9,1.23-.44,1.68-.87,3.34-1.3,5.01-4.43-.69-8.85-1.66-13.3-1.86-1.09-.05-3.23,2.44-3.22,3.75.02,1.91,1.35,5.27,2.49,5.43,4.89.69,10.17,1.75,14.28-2.55,1.08.12,2.15.24,3.25.37-.5,2.1-.93,3.92-1.37,5.73-1.74.72-3.47,1.43-5.2,2.15-.23-.1-.46-.1-.69.02-1.04.31-2.08.63-3.13.94-1,0-2.01,0-3.01,0-2-.5-3.99-1-5.99-1.49Z" style="fill: #919396;"/>
      <path d="m207.15,437.2c-4.83-.44-9.92.57-13.97-3.5-3.01-3.03-5.19-6.28-3.62-10.54,1.56-4.2,4.92-6.77,9.47-6.99,4.96-.25,9.94-.06,15.31-.06-1.21,3.97-2.93,6.46-7.31,5.98-2.14-.23-4.49-.54-6.44.1-1.99.65-3.62,2.43-5.4,3.72,1.87,1.71,3.55,4.52,5.65,4.89,4.35.77,8.93.23,14.15.23-1.15,1.86-2.04,3.3-2.93,4.74-1.64.48-3.27.95-4.91,1.43Z" style="fill: #85878b;"/>
      <path d="m418.15,410.21c-7.6-.52-15.64,1.22-22.49-3.49-3.73-2.57-6.99-5.84-10.46-8.79-.63-.98-1.26-1.96-1.88-2.94-2.65-5.01-5.3-10.02-7.96-15.03-.41-.97-.82-1.94-1.22-2.91-.1-.96-.2-1.92-.31-2.89,1.34.88,3.24,1.46,3.91,2.7,2.08,3.86,3.58,8.04,5.51,11.99,3.57,7.28,8.14,14.25,16.34,16.16,7.24,1.69,14.96,1.33,22.47,1.85.29.02.64-.19.9-.38,8.37-5.9,15.87-12.3,19.5-22.61,1.25-3.55,2.06-8.9,7.53-9.86-3.3,6.67-6.59,13.35-9.89,20.02l-1,2c-2.99,3-5.98,6-8.97,9-4,1.72-7.99,3.45-11.99,5.17Z" style="fill: #9e7627;"/>
      <path d="m252.87,427.46c-1.2-1.95-2.37-3.93-3.63-5.84-1.14-1.74-2.37-3.41-3.61-5.17,10.97-2.86,10.9,7.96,16.29,11.98,5.65-3.02,5.28-14.55,16.31-12.03-3.89,5.83-7.64,11.45-11.4,17.08-.34.08-.57.28-.71.6-.68.63-1.36,1.25-2.04,1.88-1.65.09-3.31.18-4.96.27-2.08-2.87-4.17-5.74-6.25-8.6l-.02-.16Z" style="fill: #a1a2a6;"/>
      <path d="m388.96,417.45c6.38-.14,12.88-1.09,19.1-.17,5.78.85,7.39,5.87,5.19,12.04-.87-1.7-1.75-3.39-2.83-5.5q-.55,5.86-3.32,6.09c2.38-5.95,1.2-8.36-4.85-8.73-3.3-.2-6.67.58-10,.92-1.36.98-2.92,1.79-4.02,3.01-1.04,1.14-1.62,2.71-2.39,4.1.23-3.07.45-6.13.68-9.2l2.46-2.55Z" style="fill: #d6d8db;"/>
      <path d="m385.81,429.2c.78-1.38,1.35-2.95,2.39-4.1,1.11-1.21,2.66-2.02,4.02-3.01-2.57,6.33-.97,8.98,5.71,8.91,3.05-.03,6.09-.71,9.14-1.1q2.78-.23,3.32-6.09c1.09,2.1,1.96,3.8,2.83,5.5.07,5.54-5.02,5.08-8.1,6.96-1,.32-2,.64-3,.97-1.15-.05-2.36.12-3.43-.19-5-1.44-11.47-.53-12.9-7.85Z" style="fill: #caccd0;"/>
      <path d="m385.81,429.2c1.43,7.32,7.9,6.41,12.9,7.85,1.07.31,2.28.14,3.43.19-.72,6.28-3.44,6.59-10.74,1.24-3.89,3.95-5.24,3.5-7.27-2.45-2.01-6.65-4.02-13.3-6.03-19.95,4.39-2.09,6.61.45,8.39,3.92-.23,3.07-.45,6.13-.68,9.2Z" style="fill: #040405;"/>
      <path d="m453.13,435.12c-1.31-.73-2.62-1.46-3.93-2.19-3.32-5.76-3.26-11.09,1.99-15.77.97-.08,1.94-.16,2.91-.23,1.35-.25,2.7-.49,4.05-.74,2.67,0,5.34-.01,8.02-.02,1.7.62,3.41,1.23,5.11,1.85.32-.03.61.03.89.18-.66.47-1.4.86-1.98,1.41-.74.7-1.35,1.53-2.02,2.3-2.41-.27-4.81-.75-7.22-.78-8.12-.08-9.75,2.78-5.72,9.74-.7,1.42-1.4,2.83-2.1,4.25Z" style="fill: #dadce0;"/>
      <path d="m505.06,416.27c-2.84,6.07-8.35,4.69-13.33,4.78-4.8.09-6.5,1.96-6.42,7.03-2.01-.01-4.02-.03-6.03-.04-.05-1.66-.09-3.31-.14-4.97,1.01-1.64,2.02-3.27,3.03-4.91,7.39-3.52,15.21-1.75,22.88-1.89Z" style="fill: #e0e2e6;"/>
      <path d="m353.14,436.21c.65-1.76,1.21-3.56,1.97-5.28.52-1.17,1.32-2.22,1.99-3.32,1.08.94,2.25,1.79,3.21,2.84,2,2.2,3.89,4.5,5.83,6.76.29,4.96-3.85,6.28-7,6.53-4.52.36-5.43-3.83-6-7.54Z" style="fill: #040405;"/>
      <path d="m311.14,436.31c.54-1.58,1.08-3.15,1.8-5.22,4.45,1.01,10.75-2.9,13.25,4.87.12,2.86-1.2,4.18-4.12,4.16-1.25,0-2.55.45-3.76.89-5.7,2.12-6.95,1.32-7.17-4.7Z" style="fill: #040405;"/>
      <path d="m453.13,435.12c.7-1.42,1.4-2.83,2.1-4.25,5.21-.25,10.92,2.18,15.23-2.84,1.85-.99,3.71-1.98,5.56-2.97.44,7.41-3.97,11.8-12.78,11.93-3.36.05-6.74-1.2-10.12-1.86Z" style="fill: #caccd0;"/>
      <path d="m451.18,417.16c-5.24,4.68-5.31,10.01-1.99,15.77-1.3,1.65-1.26,5.4-5.01,3.22-1.04-2.27-2.09-4.53-2.75-5.98,1.21-2.66,3.09-5.13,3.34-7.76.42-4.32-3.45-5.18-6.69-6.21,3.92-.99,7.84-1.98,12.21-3.09.36,1.65.63,2.85.89,4.05Z" style="fill: #040405;"/>
      <path d="m122.55,421.87c4.66.02,9.36-.26,13.97.23,1.64.17,3.08,2.21,4.61,3.4-1.57,1.54-2.91,3.88-4.77,4.43-2.6.77-5.59.19-8.74.19-.28-1.87-.55-3.6-.85-5.63-2.99-.54-6.01-1.39-5.73,3.57-3.37-3.01-2.37-4.95,1.51-6.19Z" style="fill: #040405;"/>
      <path d="m479.28,428.04c2.01.01,4.02.03,6.03.04,3.15,3.9,7.55,2.93,11.68,2.96,2.44.02,4.88,0,8.15,0-1.59,2.05-2.8,3.59-4.01,5.14-2.98-.03-6-.33-8.95-.03-6.52.66-10.49-2.42-12.91-8.11Z" style="fill: #caccd0;"/>
      <path d="m150.24,435.82v-19.4c1.95-.12,3.65-.23,5.65-.35v19.49c-1.25.23-2.5.46-3.75.69-.63-.14-1.26-.29-1.9-.43Z" style="fill: #7f8185;"/>
      <path d="m369.1,435.96c1.73-3.44,3.46-6.87,5.19-10.31.44.15.87.3,1.31.45.74,2.21,1.94,4.38,2.11,6.62.24,3.14,1.95,3.65,4.44,3.59-.3,1.27-.53,2.57-.92,3.82-1.15,3.71-3.37,3.69-5.96,1.5-2.13-1.8-4.12-3.78-6.17-5.68Z" style="fill: #040405;"/>
      <path d="m252.89,427.62c2.08,2.87,4.17,5.74,6.25,8.6-.8,2.97-.15,7.29-4.77,7.27-4.01-.02-7.94-1.17-7.98-6.95.99,0,1.89-.02,2.78,0,4.18.13,5.61-1.92,4.15-5.8-.36-.96-.3-2.08-.43-3.13Z" style="fill: #040405;"/>
      <path d="m365.18,361.04c-3.63-7.34-7.26-14.69-10.89-22.03.62-.01,1.24-.02,1.87-.04,4.24.92,5.98,3.49,6.03,7.86.02,1.44,1.89,2.85,2.91,4.28,1.17,3.35,2.43,6.68,3.46,10.08.46,1.54.46,3.21.67,4.83-1.01-.99-2.02-1.99-3.03-2.98-.34-.67-.67-1.33-1.01-2Z" style="fill: #9e7627;"/>
      <path d="m123.35,436.35c5.23-.18,10.46-.36,15.7-.54,1.67,3.82-.04,6.42-3.63,6.82-3.47.38-7.19-.25-10.58-1.19-.9-.25-1.01-3.31-1.48-5.09Z" style="fill: #040405;"/>
      <path d="m424.03,435.99v-4.39c5.85-1.35,10.94-1.15,14.11,4.68-1.49.49-3.02,1.49-4.47,1.37-3.24-.26-6.43-1.07-9.64-1.66Z" style="fill: #040405;"/>
      <path d="m331.09,417.17c-4.32-.42-8.64-.84-12.96-1.27,2.1-4.2,10.43-7.02,13.49-4.17.81.76-.3,3.57-.53,5.43Z" style="fill: #040405;"/>
      <path d="m375.36,379.96c2.65,5.01,5.3,10.02,7.96,15.03-2.56,0-5.13,0-6.72,0-.87-4.6-1.67-8.29-2.2-12.01-.13-.94.62-2.01.96-3.02Z" style="fill: #040405;"/>
      <path d="m351.97,421.05c-1.35,4.39-2.69,8.78-4.04,13.17-.84-4.11-2.69-8.33-2.25-12.3.47-4.18,3.86-2.42,6.29-.87Z" style="fill: #040405;"/>
      <path d="m242.17,434.15c.43-1.82.87-3.64,1.37-5.73-1.1-.13-2.18-.25-3.25-.37-.08-1.59-.17-3.19-.25-4.78.43-1.67.86-3.34,1.3-5.01,6.02,1.05,4.49,5.94,4.99,9.81-1.38,2.03-2.77,4.06-4.15,6.09Z" style="fill: #a1a2a6;"/>
      <path d="m366.19,363.04c1.01.99,2.02,1.99,3.03,2.98,1.54,2.72,3.07,5.43,4.61,8.15.1.96.2,1.92.31,2.89-5.11-1.11-8.79-7.59-7.95-14.01Z" style="fill: #040405;"/>
      <path d="m482.18,418.16c-1.01,1.64-2.02,3.27-3.03,4.91-.92-.34-1.83-.67-2.75-1.01-1.42-1.29-2.83-2.57-4.25-3.86-.28-.16-.57-.22-.89-.18-.11-.26-.17-.53-.18-.8,1.54-.69,3.2-2.12,4.58-1.89,2.27.38,4.35,1.83,6.52,2.83Z" style="fill: #040405;"/>
      <path d="m333.17,436.13c-1.07-2.12-2.15-4.23-3.39-6.69.11-.05.9-.39,1.69-.73,3.3,3.69,6.6,7.37,9.91,11.06l-1.72,1.77c-2.16-1.8-4.32-3.61-6.48-5.41Z" style="fill: #040405;"/>
      <path d="m472.15,418.2c1.42,1.29,2.83,2.57,4.25,3.86-.13,1-.25,2-.38,3-1.85.99-3.71,1.98-5.56,2.97-.77-2.04-1.53-4.08-2.3-6.12.67-.77,1.28-1.6,2.02-2.3.58-.55,1.31-.95,1.98-1.41Z" style="fill: #e6e7eb;"/>
      <path d="m348.83,435.57c.44.22.87.44,1.31.65,0,.81.28,1.79-.08,2.4-.72,1.23-1.62,2.53-2.79,3.26-.54.33-1.88-.63-2.85-1.01.58-1.39.98-2.91,1.82-4.11.47-.67,1.7-.81,2.59-1.19Z" style="fill: #040405;"/>
      <path d="m333.43,425.07c.03-1.64.07-3.28.1-4.92,1.26-.22,2.53-.45,4.29-.76-.64,2.9.04,6.14-4.39,5.68Z" style="fill: #040405;"/>
      <path d="m230.14,437.27c1,0,2.01,0,3.01,0,.28,1.35.55,2.71.88,4.29-4.58,1.01-5.01-.98-3.89-4.29Z" style="fill: #040405;"/>
      <path d="m293.14,436.24c1.67,0,3.34,0,5.01,0-.88,1.22-1.76,2.44-2.64,3.66-.79-1.22-1.58-2.44-2.37-3.66Z" style="fill: #040405;"/>
      <path d="m285.14,436.23c1.34,0,2.67,0,4.01,0-1.34,2.79-2.68,2.79-4.01,0Z" style="fill: #040405;"/>
      <path d="m120.9,385.06l-.67,2.03c-.55-.4-1.11-.79-1.66-1.19.52-.28,1.03-.57,1.55-.85,0,0,.39.12.39.12,0,0,.39-.11.39-.11Z" style="fill: #040405;"/>
      <path d="m440.14,436.29h2c-.21.8-.43,1.59-1.01,3.72-.57-2.14-.78-2.93-.99-3.72Z"/>
      <path d="m125.32,416.27c-.5.69-1,1.38-1.5,2.07-.35-.71-.69-1.43-1.04-2.14.85.02,1.7.05,2.54.07Z" style="fill: #040405;"/>
      <path d="m264.1,435.96c.68-.63,1.36-1.25,2.04-1.88-.68.63-1.36,1.25-2.04,1.88Z" style="fill: #040405;"/>
      <path d="m120.9,385.06l-.39.11s-.39-.12-.39-.12c.26-.98.53-1.96.79-2.94,0,.98,0,1.96-.01,2.95Z" style="fill: #9e7627;"/>
      <path d="m121.3,408.4c-.13.26-.34.38-.63.35.09-.87.18-1.74.27-2.61.12.75.24,1.5.36,2.25Z" style="fill: #9e7627;"/>
      <path d="m323.37,353.03c.26-.31.53-.61.79-.91-.26.31-.53.61-.79.91Z" style="fill: #040405;"/>
      <path d="m236.27,436.32c.23-.12.46-.13.69-.02-.15.26-.3.52-.46.78-.08-.25-.16-.5-.23-.75Z" style="fill: #040405;"/>
      <path d="m373.83,374.17c-1.54-2.72-3.07-5.43-4.61-8.15-.21-1.61-.2-3.29-.67-4.83-1.03-3.4-2.29-6.72-3.46-10.08,1.17-2.33,2.15-4.78,3.58-6.93,1.02-1.55,2.44-3.04,4.03-3.97,3.92-2.3,8.05-4.23,12.06-6.39.52-.28,1.02-.98,1.14-1.56,1.13-5.83,4.82-5.84,9.28-4.17.49,5.62,5.24,6.86,9.2,8.9.28.3.56.61.84.91.99,2.05,1.98,4.1,2.97,6.16l-.02-.02c0,.83.04,1.67-.03,2.49-.29,3.65,1.85,5.12,5.03,5.46,3.59.38,3.95-2.01,4.07-4.78.04-1.05.82-2.09,1.36-3.09,2.33-4.35,4.74-8.66,7.05-13.03,2.91-5.51,5.6-11.15,8.67-16.58,6.56-11.64,13-23.37,20.06-34.7,6.96-11.18,11.36-23.93,21.99-32.94,4.59-3.89,8.91-5.94,14.53-5.78,5.12.14,10.23.6,15.34.91,0,0-.07-.03-.07-.03.72.35,1.43.69,2.15,1.03.29,0,.56.07.81.23.9,1.34,1.56,2.99,2.76,3.98,5.46,4.49,7.41,10.8,9.11,17.18,2.29,8.55,4.15,17.22,6.44,25.77,2.77,10.33,5.8,20.6,8.71,30.89-2.8,2.68-5.41,5.61-8.46,7.96-2.21,1.7-4.96,3.55-7.56,3.7-5.12.29-6.39,1.14-5.98,6.36.12,1.53.52,3.73-.29,4.54-4.04,4.02-8.45,7.67-12.72,11.46-1.95-5.74-4.71-11.36-5.66-17.26-1.51-9.44-3.21-18.77-6.48-27.74-.5-1.38-2.22-2.69-3.67-3.21-.84-.3-2.74.76-3.34,1.72-2.85,4.55-5.54,9.21-8.06,13.96-3.78,7.11-7.57,14.23-10.96,21.53-2.26,4.88-3.83,10.09-5.71,15.15,0,0,.05-.04.05-.04-.7,1.33-1.4,2.66-2.09,3.99l.04-.03c-4.74,1.83-5.2,5.8-5.01,10.08-.02.29-.1.57-.23.83-5.47.96-6.28,6.32-7.53,9.86-3.63,10.31-11.13,16.7-19.5,22.61-.26.19-.61.4-.9.38-7.51-.52-15.23-.16-22.47-1.85-8.2-1.91-12.77-8.89-16.34-16.16-1.94-3.95-3.43-8.12-5.51-11.99-.67-1.24-2.57-1.82-3.91-2.7Z" style="fill: #b57605;"/>
      <path d="m341.14,313.09c-1.14-1.91-2.28-3.82-4.16-6.97-3.14,10.63-6,20.29-8.86,29.95-.56-2.17-1.11-4.35-1.67-6.51-5.49-.14-10.15,3.23-11.35,8.04-.26,1.05-.68,2.29-1.45,2.95-5.05,4.36-10.24,8.55-15.34,12.85-4.3,3.63-8.47,7.42-12.81,11-4.15,3.42-4.25,6.18-.21,8.4-1.68,1.53-3.4,3.08-5.1,4.64-.49.45-.91,1.32-1.41,1.36-7.45.52-10.11,8.8-17.01,10.45-1.52.36-2.69,3.19-3.55,5.09-.79,1.73-.68,3.86-1.42,5.62-1.42,3.4.08,4.29,3.1,4.05,2.79-.23,5.57-.6,8.36-.9-5.35,1.56-10.61,3.78-16.08,4.53-7.27,1-14.69.85-22.04,1.19-1-.58-2.01-1.16-3.01-1.74h-.01c1.27-6.78,3.36-13.18,8.95-17.72,3.95-3.22,8.25-6.04,12.04-9.43,1.51-1.35,2.83-3.73,2.91-5.69.28-6.94,5.25-10.44,9.81-14.13,3.65-2.96,8.15-4.94,11.58-8.1,1.96-1.8,2.54-5.1,3.75-7.73.71-1.08,1.42-2.15,2.13-3.23,6.25-2.72,9.35-10.03,16.59-11.42.56-.11.75-1.71,1.26-2.53,1.86-2.97,3.41-6.26,5.78-8.78,3.29-3.51,7.68-6.04,10.76-9.7,6.64-7.91,12.71-16.3,19.13-24.4.76-.96,2.25-1.94,3.36-1.89,3.94.17,5.03-2.3,5.94-5.36.36-1.21,1.21-2.32,2.02-3.33,3.09-3.88,6.09-7.86,9.48-11.47,1.38-1.47,3.67-2.1,5.54-3.12,2.29,2.33,4.59,4.65,6.88,6.98,1.4,2.32,2.8,4.65,4.2,6.97.18,1.81.35,3.61.57,5.8-6.3-4.01-6.81-3.81-9.62,2.5-.49,1.11-1.47,2.09-2.41,2.91-5.2,4.52-10.58,8.84-15.59,13.55-.99.93-.88,3.3-.84,4.99.08,3.45,3.63,6.94-.18,10.34Z" style="fill: #d3a63a;"/>
      <path d="m365.02,266.03c-2.29-2.33-4.59-4.65-6.88-6.98-1.59-7.31-10.31-14.39-15.87-12.44,2.98,3.55.73,5.21-2.17,7.27-4.37,3.1-8.66,6.45-12.42,10.25-7.4,7.49-14.42,15.36-21.6,23.06-1.12,1.2-2.09,2.79-3.49,3.45-3.35,1.57-4.36,4.07-4.54,7.54-.1,1.95-1.22,3.86-1.87,5.78-.58-.07-1.16-.14-1.74-.21-.41-1.65-1.47-3.45-1.12-4.92.92-3.81,2.63-7.42,3.7-11.2,1.34-4.75,4.62-9.28,2.02-14.6-.03-.65-.06-1.3-.09-1.95.41-1.33.82-2.66,1.22-3.99.31-1.02.62-2.04.93-3.06,0,0,.03-.04.03-.04.26-.97.53-1.94.79-2.91.43-1.32.85-2.63,1.28-3.95.24-.35.49-.71.73-1.06.08-.34.16-.68.23-1.01.34-.66.69-1.33,1.03-1.99.33-.31.66-.61.99-.92.24-.36.49-.72.73-1.07,9.23-12.25,21.83-14.39,35.6-10.83,7.14,1.85,12.04,7.61,15.95,13.78,2.43,3.84,4.39,7.99,6.56,11.99Z" style="fill: #e3bf5b;"/>
      <path d="m341.14,313.09c3.81-3.4.27-6.89.18-10.34-.04-1.69-.15-4.06.84-4.99,5.01-4.72,10.39-9.04,15.59-13.55.94-.82,1.91-1.8,2.41-2.91,2.81-6.31,3.32-6.51,9.62-2.5-.21-2.19-.39-3.99-.57-5.8,4.33,7.99,8.66,15.97,12.99,23.96-.03.7-.07,1.41-.1,2.11-1.49,1.16-2.99,2.32-4.48,3.48-2.16.19-3.92,1.07-5.58,2.1-.97.6-1.72,1.97-2.68,2.08-6.45.78-8.1,6.03-10.44,10.73-1.01,2.04-2.02,4.15-3.44,5.89-2.9,3.55-2.8,7.18-1.04,11.1.66,1.46,1.14,3.01,1.7,4.52-.62.01-1.24.02-1.87.04-4.38-8.64-8.76-17.28-13.14-25.92Z" style="fill: #c9972c;"/>
      <path d="m130.14,271.06c5.35-.33,10.69-.86,16.05-.93,3.79-.05,7.59.75,11.38.75,5.79,0,11.59-.55,17.38-.53,5.95.02,11.91.84,17.85.62,9.93-.35,19.82-1.59,29.75-1.83,13.74-.33,27.49-.08,41.23-.08,3.58,0,7.16,0,11.68,0-1.36-1.99-2.04-2.99-2.82-4.13.43-.28.89-.8,1.16-.71,1.65.54,3.53.87,4.81,1.92,4.5,3.71,7.87,3.8,12.54-.07.73-.64,1.47-1.28,2.2-1.92,0,.64,0,1.28,0,1.93-.09.61-.18,1.22-.26,1.83-.26.38-.53.77-.79,1.15.02.34.04.69.06,1.03-.34.99-.68,1.99-1.02,2.98,0,.34,0,.68.01,1.02-.69,1.01-1.39,2.02-2.08,3.03-2.01-1.02-4.01-2.87-6.03-2.9-6.44-.08-12.9.83-19.34.78-11.56-.09-23.11-.86-34.67-.86-11.89,0-23.77.74-35.67.86-5.45.06-10.9-.82-16.35-.82-5.78,0-11.56.74-17.35.83-6.25.1-12.55.21-18.75-.45-3.74-.4-7.32-2.28-10.97-3.5Z" style="fill: #dadce0;"/>
      <path d="m548.1,409.12c-11.97-.04-23.93-.08-35.9-.13,0,0,0,.02,0,.02.04-.66.08-1.33.11-1.99,3.89.14,8.18,1.39,11.59.18,5.7-2.02,13.34-2.59,14.01-11.27.04-.51.8-1.04,1.31-1.44,3.41-2.71,6.57-5.9,10.34-7.94,5.14-2.77,3.68-6.6,2.81-10.58-1.09-4.94-2.18-9.88-3.27-14.83.28,0,.56-.02.83-.04,1.98,7.01,3.97,14.02,5.95,21.03.84,5.53,1.21,11.18,2.64,16.55,1.66,6.2.62,8.12-5.64,8.46-1.63.09-3.21,1.29-4.81,1.98Z" style="fill: #d3a63a;"/>
      <path d="m506.23,241.99c-5.11-.32-10.22-.77-15.34-.91-5.62-.16-9.94,1.89-14.53,5.78-10.63,9.01-15.03,21.77-21.99,32.94-7.06,11.33-13.5,23.06-20.06,34.7-3.06,5.43-5.75,11.07-8.67,16.58-2.31,4.37-4.71,8.68-7.05,13.03-.53,1-1.31,2.04-1.36,3.09-.12,2.78-.48,5.17-4.07,4.78-3.19-.34-5.33-1.81-5.03-5.46.07-.83.02-1.66.03-2.49,1.39,1.94,2.78,3.88,4.54,6.32,1.36-3.51,2.47-6.36,3.58-9.21,0,0-.05.03-.05.03,1.95-3.37,3.9-6.74,5.86-10.11.4-.65.8-1.29,1.2-1.94.34-.67.69-1.33,1.03-2,6.44-11.36,12.85-22.75,19.34-34.09,7.83-13.68,14.97-27.83,23.78-40.85,9.9-14.63,19.99-14.9,36.18-12.09.95.17,1.75,1.24,2.62,1.89Z" style="fill: #9e7627;"/>
      <path d="m289.26,277.11c.69-1.01,1.39-2.02,2.08-3.03,1.83,1.45-.67,6.32,4.72,5.43-1.61-2.97-2.24-5.68,1.96-6.56,0,0,.17.16.17.16-4,13.36-8,26.72-12,40.08.43-2.7,1.11-5.4,1.19-8.12.04-1.56-.89-3.15-1.4-4.78-2.18,3.76-3.93,6.77-5.68,9.77.92-4,1.85-8.01,2.77-12.01l3.22-10.93c.88-2.36,1.76-4.72,2.64-7.08.11-.98.22-1.96.33-2.93Z" style="fill: #040405;"/>
      <path d="m536.14,321.04c-2.92-10.29-5.94-20.56-8.71-30.89-2.29-8.55-4.15-17.22-6.44-25.77-1.71-6.38-3.66-12.69-9.11-17.18-1.2-.98-1.85-2.63-2.76-3.98,8.74,3.8,11.28,12.01,13.84,19.99,4.5,14.02,8.89,28.09,12.83,42.28,2.32,8.35,3.69,16.96,5.48,25.45,0,0-.31.29-.31.28-.89-1.46-1.92-2.86-2.63-4.4-.87-1.86-1.47-3.85-2.19-5.78Z" style="fill: #9e7627;"/>
      <path d="m274.14,258.06c.1-5.21-3.16-3.69-6-3,1.41-1,2.69-2.4,4.25-2.89,2.12-.67,4.46-.64,6.75-.92-.41-1.62-.71-2.83-1.01-4.03,4.66,1.98,9.32,3.96,13.97,5.93,3.22,1.98,5.62,4.18,2.11,7.95-4.36-.01-8.72-.02-13.09-.03-2.33-1-4.67-2-7-3.01Z" style="fill: #e9ebeb;"/>
      <path d="m382.1,299.08c.03-.7.07-1.41.1-2.11,4.27,6.98,8.56,13.95,12.8,20.96,1.25,2.07,2.34,4.23,3.5,6.35,1.18,1.94,2.36,3.89,3.53,5.83.34.66.69,1.33,1.03,1.99.43,1.63.87,3.26,1.3,4.89-3.96-2.04-8.7-3.28-9.2-8.9-.13-6.01-2.98-10.89-6.11-15.81-2.66-4.18-4.66-8.78-6.96-13.2Z" style="fill: #9e7627;"/>
      <path d="m548.1,409.12c1.6-.69,3.17-1.89,4.81-1.98,6.26-.34,7.3-2.27,5.64-8.46-1.43-5.37-1.8-11.02-2.64-16.55.14.32.29.63.43.95.26.34.53.67.79,1.01h-.01c1.98,7,3.96,14.02,5.94,21.04.48,2.93-.2,4.66-3.74,4.36-3.72-.32-7.48-.26-11.22-.36Z" style="fill: #dab147;"/>
      <path d="m549.95,361.1c-.28.02-.56.04-.83.04-.95-.73-1.89-1.46-2.84-2.19-.03-.58-.06-1.16-.08-1.74,0-.42-.01-.84-.02-1.26-1.74-8.24-3.48-16.48-5.22-24.72,0,0,.31-.29.31-.29.8,2.03,1.79,4,2.36,6.09,2.18,8,4.22,16.04,6.32,24.07Z" style="fill: #9e7627;"/>
      <path d="m404.37,336.98c-.43-1.63-.87-3.26-1.3-4.89,1.94,2.25,5.01,4.25,5.57,6.8,1.06,4.83,2.78,4.93,6.19,2.48.35-.25.96-.16,1.45-.23-1.11,2.85-2.21,5.7-3.58,9.21-1.75-2.44-3.14-4.38-4.54-6.32,0,0,.02.02.02.02-.99-2.05-1.98-4.1-2.97-6.16-.28-.3-.56-.61-.84-.91Z" style="fill: #040405;"/>
      <path d="m294.23,261.09c3.51-3.77,1.1-5.97-2.11-7.95,3.74-1.01,6.31,1.19,5.59,4.77-.54,2.71-1.04,5.42-1.56,8.13h0c-.93,0-1.86,0-2.79,0,0-.64,0-1.28,0-1.93.3-1.01.59-2.03.89-3.04Z" style="fill: #040405;"/>
      <path d="m422.08,331.06c-1.95,3.37-3.9,6.74-5.86,10.11-.37-4.72.29-8.83,5.86-10.11Z" style="fill: #040405;"/>
      <path d="m402.03,330.11c-1.18-1.94-2.35-3.89-3.53-5.83,3.77.37,5.96,1.7,3.53,5.83Z" style="fill: #040405;"/>
      <path d="m291.33,273.06c.34-.99.68-1.99,1.02-2.98-.34.99-.68,1.99-1.02,2.98Z" style="fill: #040405;"/>
      <path d="m296.14,266.06c.53.33,1.06.66,1.6.99-.21.19-.42.38-.63.57-.32-.52-.65-1.04-.97-1.56,0,0,0,0,0,0Z" style="fill: #040405;"/>
      <path d="m305.18,253.08c-.34.66-.69,1.33-1.03,1.99.34-.66.69-1.33,1.03-1.99Z" style="fill: #040405;"/>
      <path d="m424.32,327.13c-.34.67-.69,1.33-1.03,2,.34-.67.69-1.33,1.03-2Z" style="fill: #040405;"/>
      <path d="m301.91,261.1c-.26.97-.53,1.94-.79,2.91.26-.97.53-1.94.79-2.91Z" style="fill: #040405;"/>
      <path d="m301.09,264.04c-.31,1.02-.62,2.04-.93,3.06.31-1.02.62-2.04.93-3.06Z" style="fill: #040405;"/>
      <path d="m298.94,271.09c.03.65.06,1.3.09,1.95-.28-.04-.56-.02-.84.08,0,0-.17-.16-.17-.16.3-.62.61-1.24.92-1.86Z" style="fill: #040405;"/>
      <path d="m508.31,242.99c-.72-.34-1.43-.69-2.15-1.03.72.34,1.43.69,2.15,1.03Z" style="fill: #9e7627;"/>
      <path d="m292.29,269.05c.26-.38.53-.77.79-1.15-.26.38-.53.77-.79,1.15Z" style="fill: #040405;"/>
      <path d="m303.92,256.08c-.24.35-.49.71-.73,1.06.24-.35.49-.71.73-1.06Z" style="fill: #040405;"/>
      <path d="m306.9,251.08c-.24.36-.49.72-.73,1.07.24-.36.49-.72.73-1.07Z" style="fill: #040405;"/>
      <path d="m557.13,384.09c-.26-.34-.53-.67-.79-1.01.26.34.53.67.79,1.01Z" style="fill: #040405;"/>
      <path d="m227.14,408.77c-17.82.14-35.63.35-53.45.39-11.81.03-23.63-.18-35.44-.28,4.23-.45,8.46-.89,11.99-1.26,1.56-1.67,2.59-3.5,4.13-4.24,3.07-1.46,4.53-3.55,5.59-6.81,3.73-11.52,11.1-19.35,23.52-21.71,1.31-.25,3.18-1.94,3.26-3.08.09-1.22-1.62-2.57-2.43-3.71,2.16-1,4.74-2.19,7.31-3.38,6.1-.16,12.2-.33,18.31-.48,7.4-.18,14.81-.33,22.22-.49,5.01-.46,10.02-.92,15.02-1.38-.67,1.56-.99,3.46-2.08,4.62-2.94,3.13-6.21,5.95-9.35,8.9-2.55,2.4-5.07,4.83-7.65,7.18-1.31,1.19-3.07,2.01-4.08,3.4-4.81,6.56-9.44,13.26-14.62,20.61h17.75s.01.01.01.01c0,.56,0,1.13,0,1.69Zm-28.71-42.55c-.05.25-.1.5-.15.75.87-.09,1.73-.18,2.6-.27-.01-.16-.03-.32-.04-.48h-2.41Z" style="fill: #e3bf5b;"/>
      <path d="m298.19,273.11c.27-.09.55-.12.84-.08,2.6,5.31-.68,9.85-2.02,14.6-1.07,3.78-2.78,7.39-3.7,11.2-.35,1.46.7,3.27,1.12,4.92.58.07,1.16.14,1.74.21.66-1.93,1.78-3.83,1.87-5.78.17-3.47,1.19-5.97,4.54-7.54,1.4-.65,2.37-2.24,3.49-3.45,7.18-7.7,14.2-15.58,21.6-23.06,3.76-3.8,8.04-7.16,12.42-10.25,2.9-2.05,5.16-3.72,2.17-7.27,5.56-1.94,14.29,5.13,15.87,12.44-1.87,1.01-4.16,1.64-5.54,3.12-3.39,3.61-6.39,7.59-9.48,11.47-.81,1.01-1.66,2.13-2.02,3.33-.91,3.06-2,5.53-5.94,5.36-1.11-.05-2.61.94-3.36,1.89-6.42,8.1-12.48,16.49-19.13,24.4-3.08,3.66-7.47,6.19-10.76,9.7-2.36,2.52-3.91,5.8-5.78,8.78-.51.82-.7,2.42-1.26,2.53-7.24,1.39-10.34,8.7-16.59,11.42.98-3.32,1.96-6.65,2.93-9.97,1.57-5.01,3.14-10.02,4.71-15.03.09-.96.18-1.91.27-2.87,4-13.36,8-26.72,12-40.08Z" style="fill: #dab147;"/>
      <path d="m173.06,307.04c-.05-1.87-.1-3.73-.15-5.6-.04-3.35.36-6.79-.26-10.04-.59-3.05-.3-4.4,3.09-4.38,9.5.08,19,.12,28.5-.03,3.16-.05,4.01,1.26,3.95,4.17-.14,6.83-.08,13.67-.03,20.5.03,3.79-1.79,5.52-5.52,5.38-.33-.01-.67,0-1,0-10.21-.03-9.44-.84-9.57,9.38-.02,1.78-1.09,3.54-1.67,5.32-1.72-.7-3.4-1.86-5.18-2.02-7.29-.66-8.86-5.1-8.4-11.44.05-.65-2.45-1.48-3.76-2.23,0-1.66,0-3.32,0-4.98,0-1.34,0-2.69,0-4.03Z"/>
      <path d="m289.26,277.11c-.11.98-.22,1.96-.33,2.93-5.2,0-10.4.1-15.6-.05-7.4-.21-14.79-.58-22.19-.95-3.62-.18-6.01,1.29-7.02,4.83-.66,0-1.32,0-1.98,0-1.55-1.57-3.07-4.45-4.65-4.48-8.36-.18-16.75.27-25.11.75-1.45.08-2.83,1.33-4.25,2.04-10.67.01-21.35.02-32.02.03-1.21-1.05-2.28-2.66-3.67-3.02-2.03-.52-4.29-.15-6.46-.15-9.91,0-19.81-.11-29.71.15-1.4.04-2.76,1.96-4.13,3.01-3.34-.02-6.68-.04-10.03-.06-1.24-.91-2.47-1.83-3.71-2.74,1.56-2.13,3.12-4.26,4.67-6.39.7-.95,1.4-1.89,2.1-2.84.37-.37.73-.74,1.1-1.11,1.28.66,2.57,1.31,3.85,1.97,3.65,1.22,7.23,3.09,10.97,3.5,6.2.67,12.5.55,18.75.45,5.79-.09,11.57-.82,17.35-.83,5.45,0,10.9.88,16.35.82,11.89-.13,23.78-.86,35.67-.86,11.56,0,23.11.77,34.67.86,6.45.05,12.9-.86,19.34-.78,2.02.03,4.02,1.88,6.03,2.9Z" style="fill: #d6d8db;"/>
      <path d="m227.12,407.07h-17.75c5.19-7.35,9.81-14.05,14.62-20.61,1.02-1.38,2.77-2.21,4.08-3.4,2.59-2.35,5.1-4.79,7.65-7.18,3.14-2.95,6.41-5.77,9.35-8.9,1.09-1.17,1.41-3.06,2.08-4.62,6.52-3.06,13.28-5.72,19.48-9.33,3.63-2.12,6.37-5.77,9.5-8.73-1.2,2.63-1.79,5.93-3.75,7.73-3.43,3.16-7.93,5.13-11.58,8.1-4.56,3.69-9.53,7.18-9.81,14.13-.08,1.96-1.4,4.35-2.91,5.69-3.79,3.39-8.08,6.21-12.04,9.43-5.59,4.54-7.67,10.94-8.95,17.71Z" style="fill: #dab147;"/>
      <path d="m244.13,283.88c1.01-3.54,3.4-5.01,7.02-4.83,7.39.37,14.79.73,22.19.95,5.2.15,10.4.04,15.6.05-.88,2.36-1.76,4.72-2.64,7.08-7.09,1.95-15.6-1.14-21.24,5.97-.64-.35-1.28-.7-1.92-1.05-.39-4.35-5.38-6.66-9.01-4.17-3.33-1.33-6.67-2.66-10-4Z" style="fill: #caccd0;"/>
      <path d="m265.06,293.09c5.64-7.11,14.15-4.01,21.24-5.97-1.07,3.64-2.15,7.29-3.22,10.93-3.62-.49-7.22-1.08-10.85-1.41-.79-.07-1.67.77-2.5,1.2,0,0-.34-.27-.34-.27-.77-.83-1.54-1.66-2.31-2.48-.67-.66-1.34-1.33-2.01-1.99Z" style="fill: #bfc0c4;"/>
      <path d="m132.16,282.22c1.38-1.05,2.73-2.97,4.13-3.01,9.9-.27,19.81-.15,29.71-.15,2.16,0,4.43-.38,6.46.15,1.39.36,2.46,1.97,3.67,3.02-8.37.15-16.74.28-25.11.45-1.96.04-3.91.23-5.87.36-3,0-6,.02-9,.02l-3.99-.83Z" style="fill: #caccd0;"/>
      <path d="m269.72,297.84c.84-.42,1.71-1.27,2.5-1.2,3.63.33,7.24.92,10.85,1.41-.92,4-1.85,8.01-2.77,12.01-.99-.17-2.47.01-2.88-.57-2.7-3.79-5.16-7.75-7.71-11.65Z" style="fill: #b4b6ba;"/>
      <path d="m208.15,282.19c1.41-.71,2.8-1.96,4.25-2.04,8.36-.48,16.74-.92,25.11-.75,1.58.03,3.1,2.91,4.65,4.48-11.33-.56-22.67-1.13-34-1.69Z" style="fill: #caccd0;"/>
      <path d="m136.14,283.06c3,0,6-.02,9-.02-.45,6.25-6.21,9.63-11.79,6.69-1.05-.55-1.78-2.32-1.95-3.62-.07-.57,1.62-1.41,2.58-2.03.66-.43,1.43-.68,2.15-1.01Z"/>
      <path d="m285.92,316.05c-1.57,5.01-3.14,10.02-4.71,15.03-5.42-7.52-3.61-13.3,4.71-15.03Z" style="fill: #040405;"/>
      <path d="m232.14,363.73c-7.41.16-14.81.31-22.22.49-6.11.15-12.21.32-18.31.48-2.16-.28-4.33-.56-6.49-.83,5.26-.2,10.51-.57,15.76-.55,10.42.03,20.83.27,31.25.42Z" style="fill: #9e7627;"/>
      <path d="m172.24,363c.16-7.7.33-15.4.49-23.1.47,1.63,1.31,3.24,1.35,4.88.17,6.03.09,12.08.1,18.11-.65.04-1.3.07-1.94.11Z" style="fill: #040405;"/>
      <path d="m254.13,287.87c3.64-2.49,8.62-.18,9.01,4.17-3-1.39-6.01-2.78-9.01-4.17Z" style="fill: #bfc0c4;"/>
      <path d="m118.42,279.43c1.24.91,2.47,1.83,3.71,2.74-1.32.02-2.65.04-3.97.05-.1-.8-.19-1.6-.29-2.4.07-.29.26-.42.56-.39Z" style="fill: #caccd0;"/>
      <path d="m267.07,295.09c.77.83,1.54,1.66,2.31,2.48-.77-.83-1.54-1.66-2.31-2.48Z" style="fill: #b4b6ba;"/>
      <path d="m172.24,363c.65-.04,1.3-.07,1.94-.11.17.27.22.57.15.89-.7-.26-1.4-.52-2.1-.78Z" style="fill: #9e7627;"/>
      <path d="m133.06,408.9c-3.28,0-6.56,0-9.83,0,3.28,0,6.56,0,9.83,0Z" style="fill: #e3bf5b;"/>
      <path d="m173.06,307.04c0,1.34,0,2.69,0,4.03,0-1.34,0-2.69,0-4.03Z" style="fill: #040405;"/>
      <path d="m267.14,255.06c.03,3.59-1.91,5.18-5.32,4.96-2.57-.17-5.12-.63-7.68-.96,4.33-1.33,8.67-2.67,13-4Z" style="fill: #e9ebeb;"/>
      <path d="m294.23,261.09c-.3,1.01-.59,2.03-.89,3.04-.73.64-1.47,1.28-2.2,1.92-3.33-1.66-6.67-3.33-10-4.99,4.36.01,8.72.02,13.09.03Z" style="fill: #e6e7eb;"/>
      <path d="m482.18,418.16c-2.16-1-4.25-2.46-6.52-2.83-1.38-.23-3.04,1.2-4.58,1.89-1.64-.35-3.29-.7-4.93-1.04-2.67,0-5.34.01-8.02.02-1.35.25-2.7.49-4.05.74-.97.08-1.94.16-2.91.23-.26-1.2-.53-2.4-.89-4.05-4.37,1.11-8.29,2.1-12.21,3.09-5.86.22-11.71.43-17.57.65-.79-2.21-1.58-4.43-2.36-6.64,4-1.72,7.99-3.45,11.99-5.17,1.11,2.94,1.51,7.34,6.26,4.99,3.45-1.71,4.7-10.19,2.7-13.99.33-.67.67-1.33,1-2,5.1,1.64,4.81,1.41,5.48-3.91.31-2.41,2.72-5.89,4.85-6.49,6.76-1.91,12.1-7.26,10.46-13.53-1.53-5.83,1.33-9.35,4.05-13.49,1.04-1.57,1.4-3.74,1.58-5.68.18-1.94-.24-3.94-.39-5.91,1.05-2.32,2.11-4.64,3.16-6.96,1.32.45,2.72.75,3.95,1.4,2.52,1.33,4.8,3.35,7.46,4.16,4.93,1.5,10.06,2.34,15.11,3.45.17.97.34,1.94.5,2.92-1.43,2.02-2.41,3.96,1,5.01.63,1.68,1.26,3.36,1.88,5.04-.23,2.54-.96,5.15-.61,7.6.93,6.5,2.21,12.96,3.62,19.37.49,2.21,1.92,4.19,2.67,6.37,1.07,3.12,2.84,6.4,2.6,9.48-.31,4.13.56,6.07,4.73,6.17,0,0,0-.02,0-.02.22,2.67.44,5.34.66,8.01-.6.27-1.2.55-1.8.82-.84-1.52-1.68-3.04-2.52-4.55-1.16,1-2.32,2.01-3.48,3.01-7.67.13-15.49-1.63-22.88,1.89Zm-22.47-23.1c1.07-1.5,2.34-2.52,2.19-3.25-.2-.98-1.85-2.58-2.28-2.41-1.19.47-2.07,1.72-3.08,2.67.85.8,1.7,1.61,3.17,3Z" style="fill: #020101;"/>
      <path d="m564.08,423.08c.01,1.99.02,3.98.04,5.97-.32,0-.62.08-.9.23-.4-1.19-.81-2.38-1.08-3.17-1.62.37-2.86.65-4.09.94.67-3.81-1.86-5.21-4.81-5.79-2.23-.44-4.61-.21-6.92-.15-3.46.09-5.49,1.71-5.35,5.41-3.13.18-4.9,1.05-2.59,4.49.57.85.48,2.15.7,3.25-5.06-2.66-4.84-7.5-3.68-11.67,1.21-4.35,5.09-6.66,9.84-6.48,3.91.14,7.81.55,11.72.89,3.81.33,5.92,2.7,7.11,6.11Z" style="fill: #e0e2e6;"/>
      <path d="m539.09,434.24c-.22-1.1-.13-2.4-.7-3.25-2.31-3.44-.55-4.31,2.59-4.49,1.53,1.47,2.96,4.05,4.6,4.19,4.43.38,9.79,2.4,12.47-3.66,1.23-.28,2.47-.56,4.09-.94.27.79.67,1.98,1.08,3.17-.36,1.25-.73,2.5-1.09,3.74-.67.44-1.34.88-2.01,1.32-.3.24-.61.49-.91.73-4.32.65-8.63,1.29-12.95,1.94-2.39-.92-4.77-1.85-7.16-2.77Z" style="fill: #caccd0;"/>
      <path d="m511.07,417.82c.6-.27,1.2-.55,1.8-.82,0,0,.21-.02.21-.02.7-.28,1.4-.57,2.1-.85h17.53c-1.56,4.01-4.08,5.42-8.04,4.98-4.1-.46-8.25-.43-11.42,2.99-.71-.42-1.42-.84-2.24-1.32-.91,2.44-1.82,4.85-2.73,7.27-2.66-4.9-1.02-8.81,2.79-12.23Z" style="fill: #e0e2e6;"/>
      <path d="m515.17,416.13c-.7.28-1.4.57-2.1.85.7-.28,1.4-.57,2.1-.85Z" style="fill: #020101;"/>
      <path d="m562.13,433.02c.36-1.25.73-2.5,1.09-3.74.28-.15.58-.22.9-.23l2.18,5.51c-.1.38-.2.76-.29,1.14-1.29-.89-2.59-1.79-3.88-2.68Z" style="fill: #040405;"/>
      <path d="m559.2,435.08c.3-.24.61-.49.91-.73-.3.24-.61.49-.91.73Z" style="fill: #040405;"/>
      <path d="m125.19,270.21c-.7.95-1.4,1.89-2.1,2.84.7-.95,1.4-1.89,2.1-2.84Z" style="fill: #caccd0;"/>
      <path d="m227.14,408.77c0-.56,0-1.13,0-1.69,1,.58,2.01,1.16,3.01,1.74-1-.02-2-.03-3.01-.05Z" style="fill: #dab147;"/>
      <path d="m240.03,423.27c.08,1.59.17,3.19.25,4.78-4.11,4.3-9.39,3.24-14.28,2.55-1.14-.16-2.46-3.53-2.49-5.43-.02-1.3,2.13-3.8,3.22-3.75,4.45.2,8.87,1.17,13.3,1.86Z" style="fill: #040405;"/>
      <path d="m466.14,345.02c.16,1.97.58,3.97.39,5.91-.18,1.94-.55,4.11-1.58,5.68-2.72,4.14-5.58,7.66-4.05,13.49,1.64,6.27-3.7,11.62-10.46,13.53-2.13.6-4.55,4.08-4.85,6.49-.67,5.32-.38,5.55-5.48,3.91,3.3-6.67,6.59-13.35,9.89-20.02.13-.26.21-.54.23-.83,1.67-3.36,3.34-6.72,5.01-10.08,0,0-.04.03-.04.03.7-1.33,1.4-2.66,2.09-3.99,0,0-.05.04-.05.04,1-1.43,2.07-2.82,2.98-4.3,2.01-3.26,3.95-6.57,5.91-9.86Z" style="fill: #040405;"/>
      <path d="m439.1,396.04c1.99,3.8.74,12.28-2.7,13.99-4.75,2.35-5.15-2.05-6.26-4.99,2.99-3,5.98-6,8.97-9Z" style="fill: #040405;"/>
      <path d="m407.08,429.91c-3.05.39-6.09,1.07-9.14,1.1-6.68.07-8.28-2.58-5.71-8.91,3.34-.34,6.7-1.11,10-.92,6.05.36,7.23,2.78,4.85,8.73Z" style="fill: #040405;"/>
      <path d="m468.15,421.91c.77,2.04,1.53,4.08,2.3,6.12-4.32,5.02-10.03,2.59-15.23,2.84-4.04-6.96-2.41-9.81,5.72-9.74,2.41.02,4.81.51,7.22.78Z" style="fill: #040405;"/>
      <path d="m454.09,416.93c1.35-.25,2.7-.49,4.05-.74-1.35.25-2.7.49-4.05.74Z" style="fill: #e6e7eb;"/>
      <path d="m466.15,416.17c1.64.35,3.29.7,4.93,1.04.01.28.07.55.18.8-1.7-.62-3.41-1.23-5.11-1.85Z" style="fill: #e6e7eb;"/>
      <path d="m382.1,299.08c2.29,4.41,4.29,9.02,6.96,13.2,3.13,4.91,5.98,9.8,6.11,15.81-4.46-1.67-8.15-1.66-9.28,4.17-.11.58-.62,1.28-1.14,1.56-4.01,2.16-8.14,4.09-12.06,6.39-1.59.93-3,2.42-4.03,3.97-1.42,2.16-2.4,4.61-3.58,6.93-1.02-1.42-2.89-2.84-2.91-4.28-.05-4.37-1.79-6.94-6.03-7.86-.56-1.51-1.04-3.05-1.7-4.52-1.76-3.91-1.86-7.54,1.04-11.1,1.42-1.74,2.43-3.86,3.44-5.89,2.33-4.7,3.99-9.94,10.44-10.73.96-.12,1.71-1.49,2.68-2.08,1.66-1.03,3.42-1.91,5.58-2.1,1.49-1.16,2.99-2.32,4.48-3.48Z" style="fill: #c18d1b;"/>
      <path d="m546.2,357.21c.03.58.06,1.16.08,1.74-1.37-1.01-2.81-1.94-4.1-3.04-.96-.82-1.72-2.62-2.58-2.63-1.12,0-2.5,1.12-3.32,2.13-1.12,1.37-1.64,3.22-2.73,4.62-5.3,6.83-10.94,13.4-15.99,20.41-3.02,4.2-6.17,6.12-10.19,4.6-2.08-10-4.17-19.99-6.25-29.99,4.28-3.78,8.68-7.44,12.72-11.46.81-.81.41-3,.29-4.54-.4-5.21.86-6.06,5.98-6.36,2.6-.15,5.35-2,7.56-3.7,3.05-2.35,5.66-5.28,8.46-7.96.72,1.93,1.32,3.92,2.19,5.78.72,1.54,1.74,2.94,2.63,4.4,1.74,8.24,3.48,16.48,5.21,24.73,0,.42.01.84.02,1.26Z" style="fill: #c18d1b;"/>
      <path d="m501.13,355.05c2.08,10,4.17,19.99,6.25,29.99-.3.09-.6.11-.91.07-.79-1.94-1.8-3.82-2.34-5.83-1.73-6.39-3.29-12.83-4.92-19.25-.63-1.68-1.26-3.36-1.88-5.04-.33-1.67-.67-3.34-1-5.01-.17-.97-.34-1.94-.5-2.92-3.19-12.57-6.37-25.14-9.63-38-.52.18-1.78.22-2.18.82-1.71,2.58-3.28,5.27-4.69,8.03-3.4,6.68-6.68,13.43-10.01,20.15-1.05,2.32-2.11,4.64-3.16,6.96-1.97,3.29-3.9,6.6-5.91,9.86-.91,1.48-1.98,2.87-2.98,4.3,1.88-5.06,3.45-10.27,5.71-15.15,3.39-7.3,7.18-14.42,10.96-21.53,2.52-4.74,5.21-9.41,8.06-13.96.6-.96,2.51-2.02,3.34-1.72,1.45.52,3.17,1.83,3.67,3.21,3.27,8.97,4.97,18.31,6.48,27.74.95,5.9,3.71,11.52,5.66,17.26Z" style="fill: #9e7627;"/>
      <path d="m455.23,363.11c-1.67,3.36-3.34,6.72-5.01,10.08-.18-4.28.28-8.24,5.01-10.08Z" style="fill: #9e7627;"/>
      <path d="m405.21,337.89c.99,2.05,1.98,4.1,2.97,6.16-.99-2.05-1.98-4.1-2.97-6.16Z" style="fill: #9e7627;"/>
      <path d="m457.29,359.15c-.7,1.33-1.4,2.66-2.09,3.99.7-1.33,1.4-2.66,2.09-3.99Z" style="fill: #9e7627;"/>
      <path d="m506.47,385.12c.31.04.61.01.91-.07,4.03,1.52,7.17-.39,10.19-4.6,5.04-7.01,10.69-13.58,15.99-20.41,1.09-1.4,1.61-3.25,2.73-4.62.82-1.01,2.2-2.13,3.32-2.13.86,0,1.62,1.8,2.58,2.63,1.29,1.11,2.73,2.04,4.1,3.04.95.73,1.89,1.46,2.84,2.18,1.09,4.94,2.19,9.88,3.27,14.83.88,3.99,2.33,7.81-2.81,10.58-3.78,2.04-6.93,5.24-10.34,7.94-.51.41-1.27.93-1.31,1.44-.66,8.69-8.31,9.25-14.01,11.27-3.41,1.21-7.7-.04-11.59-.18-1.95-7.3-3.9-14.61-5.86-21.91Z" style="fill: #c9972c;"/>
      <path d="m506.47,385.12c1.95,7.3,3.9,14.61,5.86,21.91-.04.66-.08,1.33-.11,1.99-4.17-.1-5.04-2.04-4.73-6.17.23-3.08-1.53-6.35-2.6-9.48-.74-2.17-2.18-4.16-2.67-6.37-1.41-6.41-2.68-12.87-3.62-19.37-.35-2.45.37-5.06.61-7.6,1.63,6.42,3.19,12.86,4.92,19.25.54,2.01,1.55,3.89,2.34,5.83Z" style="fill: #040405;"/>
      <path d="m546.2,357.21c0-.42-.01-.84-.02-1.26,0,.42.01.84.02,1.26Z" style="fill: #c9972c;"/>
      <path d="m198.43,366.22h2.41c.01.16.03.32.04.48-.87.09-1.73.18-2.6.27.05-.25.1-.5.15-.75Z" style="fill: #f8e48c;"/>
      <path d="m469.3,338.06c3.33-6.72,6.61-13.46,10.01-20.15,1.4-2.76,2.98-5.45,4.69-8.03.4-.6,1.66-.64,2.18-.82,3.26,12.86,6.45,25.43,9.63,38-5.05-1.11-10.18-1.95-15.11-3.45-2.66-.81-4.93-2.83-7.46-4.16-1.22-.64-2.63-.94-3.95-1.4Z" style="fill: #040405;"/>
      <path d="m459.71,395.06c-1.47-1.39-2.32-2.2-3.17-3,1-.94,1.89-2.2,3.08-2.67.43-.17,2.08,1.43,2.28,2.41.15.73-1.12,1.76-2.19,3.25Z" style="fill: #040405;"/>
      <path d="m496.31,349.98c.33,1.67.67,3.34,1,5.01-3.42-1.05-2.43-2.99-1-5.01Z" style="fill: #040405;"/>
      <path d="m558.05,427.04c-2.68,6.06-8.03,4.05-12.47,3.66-1.64-.14-3.07-2.72-4.6-4.19-.14-3.7,1.89-5.32,5.35-5.41,2.31-.06,4.69-.29,6.92.15,2.95.58,5.47,1.99,4.81,5.79Z" style="fill: #040405;"/>
    </g>
  </g>
</svg>